<svg width="30" height="37" viewBox="0 0 30 37" fill="none" xmlns="http://www.w3.org/2000/svg">
<path d="M15.0001 28.6151C18.3442 28.6151 21.3718 27.2522 23.5642 25.051C25.7557 22.8488 27.1108 19.8049 27.1108 16.4445C27.1108 13.0841 25.7546 10.0413 23.5642 7.83805C21.3728 5.63581 18.344 4.27399 15.0001 4.27399C11.6561 4.27399 8.62833 5.63688 6.43587 7.83805C4.24445 10.0403 2.88933 13.0841 2.88933 16.4445C2.88933 19.8049 4.24552 22.8477 6.43587 25.051C8.62729 27.2532 11.6561 28.6151 15.0001 28.6151ZM14.3736 23.2566C14.3736 22.9087 14.6538 22.6271 15.0001 22.6271C15.3463 22.6271 15.6265 22.9087 15.6265 23.2566V23.595C15.6265 23.9429 15.3463 24.2245 15.0001 24.2245C14.6538 24.2245 14.3736 23.9429 14.3736 23.595V23.2566ZM11.6284 13.0194C11.6284 13.3674 11.3482 13.6489 11.0019 13.6489C10.6557 13.6489 10.3755 13.3674 10.3755 13.0194C10.3755 11.7358 10.8932 10.5742 11.7306 9.73382C12.568 8.89233 13.7239 8.372 15.0001 8.372C16.2774 8.372 17.4333 8.8923 18.2695 9.73382C19.1069 10.5742 19.6247 11.7369 19.6247 13.0194C19.6247 14.302 19.1069 15.4647 18.2695 16.305C17.5717 17.0052 16.6523 17.4838 15.6264 17.624V19.3766C15.6264 19.7245 15.3463 20.0061 15 20.0061C14.6537 20.0061 14.3736 19.7245 14.3736 19.3766V17.0362C14.3736 16.6883 14.6537 16.4067 15 16.4067C15.9311 16.4067 16.7749 16.0277 17.3842 15.4143C17.9947 14.8008 18.3718 13.954 18.3718 13.0182C18.3718 12.0825 17.9947 11.2346 17.3842 10.6222C16.7749 10.0098 15.9311 9.62978 15 9.62978C14.0689 9.62978 13.2251 10.0088 12.6158 10.6222C12.0053 11.2357 11.6282 12.0825 11.6282 13.0182L11.6284 13.0194ZM24.4498 25.9406C22.0315 28.3709 18.6906 29.8742 15.0004 29.8742C11.3101 29.8742 7.96917 28.371 5.5509 25.9406C3.13257 23.5104 1.63672 20.153 1.63672 16.4445C1.63672 12.736 3.13246 9.37862 5.5509 6.9484C7.96923 4.51813 11.3101 3.01489 15.0004 3.01489C18.6906 3.01489 22.0315 4.51802 24.4498 6.9484C26.8681 9.37867 28.364 12.736 28.364 16.4445C28.364 20.153 26.8682 23.5104 24.4498 25.9406Z" fill="white"/>
</svg>
