<svg width="42" height="52" viewBox="0 0 42 52" fill="none" xmlns="http://www.w3.org/2000/svg">
<path d="M31.626 16.1409H30.45V11.6481C30.45 6.28168 26.544 2.08008 20.958 2.08008C15.372 2.08008 11.55 6.36488 11.55 11.6481V16.0993C11.55 16.1409 11.55 16.1409 11.55 16.0993H10.374C7.77 16.0993 5.67 18.1793 5.628 20.8001V34.8609C5.628 37.4401 7.728 39.5201 10.374 39.5617H31.626C34.23 39.5617 36.33 37.4817 36.372 34.8609V20.8001C36.372 18.2209 34.23 16.1409 31.626 16.1409ZM13.902 16.1409V11.6481C13.902 7.65448 16.674 4.40968 20.958 4.40968C25.2 4.40968 28.098 7.57128 28.098 11.6481V16.0993C28.098 16.1409 28.098 16.1409 28.098 16.0993H13.902C13.902 16.1409 13.902 16.1409 13.902 16.1409ZM33.978 34.8609C33.978 36.1505 32.928 37.1905 31.626 37.1905H10.374C9.072 37.1905 8.022 36.1505 8.022 34.8609V20.8001C8.022 19.5105 9.072 18.4705 10.374 18.4705H31.626C32.928 18.4705 33.978 19.5105 33.978 20.8001V34.8609ZM23.352 25.5009C23.352 26.3745 22.89 27.1233 22.176 27.5393V31.3665C22.176 32.0321 21.63 32.5313 21 32.5313C20.328 32.5313 19.824 31.9905 19.824 31.3665V27.5393C19.11 27.1233 18.648 26.3745 18.648 25.5009C18.648 24.2113 19.698 23.1713 21 23.1713C22.302 23.1297 23.352 24.1697 23.352 25.5009Z" fill="black"/>
</svg>
