<svg width="44" height="55" viewBox="0 0 44 55" fill="none" xmlns="http://www.w3.org/2000/svg">
<path d="M17.7226 9.02888C18.2236 9.02888 18.7133 9.17745 19.1299 9.45579C19.5465 9.73414 19.8712 10.1298 20.0629 10.5926C20.2546 11.0555 20.3048 11.5648 20.207 12.0562C20.1093 12.5476 19.868 12.999 19.5138 13.3532C19.1595 13.7075 18.7082 13.9487 18.2168 14.0465C17.7254 14.1442 17.2161 14.0941 16.7532 13.9023C16.2903 13.7106 15.8947 13.3859 15.6163 12.9694C15.338 12.5528 15.1894 12.063 15.1894 11.562C15.1903 10.8904 15.4574 10.2466 15.9323 9.77174C16.4072 9.29686 17.051 9.02971 17.7226 9.02888ZM20.1457 16.0469C19.0679 16.6295 17.8164 16.8047 16.62 16.5404C15.4237 16.2762 14.3624 15.5902 13.6302 14.6078C12.8981 13.6254 12.544 12.4123 12.6327 11.1903C12.7214 9.96835 13.247 8.81912 14.1133 7.95277C14.9797 7.08643 16.1289 6.56085 17.3509 6.47215C18.5729 6.38345 19.7859 6.73755 20.7683 7.46969C21.7507 8.20184 22.4367 9.26312 22.701 10.4595C22.9652 11.6558 22.79 12.9074 22.2074 13.9852C22.676 13.7439 23.2009 13.6334 23.7269 13.6655C24.2529 13.6976 24.7606 13.871 25.1963 14.1675C25.3237 13.4964 25.6813 12.8909 26.2075 12.4554C26.7336 12.0199 27.3953 11.7818 28.0783 11.782H28.8451V10.8392C28.8438 10.5387 28.7371 10.2483 28.5435 10.0186C28.3499 9.7888 28.0819 9.6343 27.786 9.58202L26.1203 9.28974C25.9248 8.56377 25.6353 7.86645 25.2591 7.21545L26.2303 5.82945C26.3969 5.58449 26.4735 5.2894 26.4471 4.99434C26.4208 4.69928 26.2931 4.42245 26.0857 4.21088L25.0863 3.19574C24.8729 2.98332 24.5917 2.85275 24.2917 2.82689C23.9918 2.80104 23.6923 2.88154 23.4457 3.05431L22.0597 4.02545C21.4088 3.64925 20.7114 3.35975 19.9854 3.16431L19.6931 1.4986C19.6409 1.20275 19.4864 0.934653 19.2566 0.741083C19.0269 0.547513 18.7364 0.440761 18.436 0.439453H17.0217C16.7213 0.440761 16.4309 0.547513 16.2011 0.741083C15.9714 0.934653 15.8169 1.20275 15.7646 1.4986L15.4723 3.16431C14.7463 3.35971 14.0489 3.64921 13.398 4.02545L11.9994 3.05431C11.754 2.88487 11.4571 2.80629 11.16 2.8321C10.8628 2.85792 10.584 2.98651 10.3714 3.19574L9.35629 4.21088C9.14308 4.42442 9.012 4.70632 8.98613 5.00697C8.96027 5.30763 9.04126 5.60777 9.21486 5.8546L10.186 7.24059C9.81002 7.89166 9.52054 8.58896 9.32486 9.31488L7.65915 9.60717C7.3633 9.65944 7.09521 9.81394 6.90164 10.0437C6.70807 10.2735 6.60131 10.5639 6.60001 10.8643V12.2786C6.60131 12.579 6.70807 12.8694 6.90164 13.0992C7.09521 13.329 7.3633 13.4835 7.65915 13.5357L9.32486 13.828C9.52037 14.554 9.80986 15.2513 10.186 15.9023L9.21486 17.282C9.04126 17.5288 8.96027 17.829 8.98613 18.1296C9.012 18.4303 9.14308 18.7122 9.35629 18.9257L10.3714 19.9252C10.5846 20.1389 10.8663 20.2705 11.1669 20.297C11.4676 20.3234 11.768 20.2429 12.0151 20.0697L13.4011 19.0986C14.0522 19.4746 14.7495 19.7641 15.4754 19.9597L15.7677 21.6255C15.82 21.9213 15.9745 22.1894 16.2043 22.383C16.434 22.5765 16.7244 22.6833 17.0249 22.6846H17.9677V21.9177C17.9674 21.2347 18.2056 20.5731 18.6411 20.0469C19.0766 19.5207 19.6821 19.1631 20.3531 19.0357C20.0527 18.6023 19.8749 18.0959 19.8384 17.5698C19.8019 17.0438 19.9081 16.5176 20.1457 16.0469ZM37.4 21.9177V23.0303C37.3969 23.2656 37.3116 23.4924 37.159 23.6715C37.0063 23.8505 36.7958 23.9706 36.564 24.0109L35.2503 24.2403C35.098 24.8199 34.8697 25.3768 34.5714 25.8966L35.3383 26.9903C35.4751 27.1849 35.5387 27.4215 35.518 27.6584C35.4973 27.8953 35.3936 28.1173 35.2251 28.2852L34.4363 29.074C34.2684 29.2425 34.0464 29.3462 33.8095 29.3669C33.5726 29.3876 33.336 29.3239 33.1414 29.1872L32.0571 28.4109C31.5442 28.7073 30.9948 28.9355 30.4229 29.0897L30.1714 30.4034C30.1311 30.6353 30.0111 30.8457 29.832 30.9984C29.6529 31.1511 29.4261 31.2363 29.1909 31.2394H28.0783C27.8403 31.24 27.6098 31.1564 27.4275 31.0034C27.2451 30.8504 27.1228 30.6379 27.082 30.4034L26.8526 29.0897C26.2806 28.9355 25.7312 28.7073 25.2183 28.4109L24.1246 29.1777C23.93 29.3145 23.6934 29.3782 23.4565 29.3575C23.2196 29.3368 22.9976 29.233 22.8297 29.0646L22.0409 28.2757C21.8724 28.1079 21.7687 27.8859 21.748 27.649C21.7273 27.412 21.7909 27.1754 21.9277 26.9809L22.6977 25.8966C22.4013 25.3837 22.173 24.8343 22.0189 24.2623L20.7051 24.0109C20.4707 23.9701 20.2582 23.8477 20.1052 23.6654C19.9522 23.4831 19.8686 23.2526 19.8691 23.0146V21.9177C19.8686 21.6797 19.9522 21.4492 20.1052 21.2669C20.2582 21.0846 20.4707 20.9622 20.7051 20.9214L22.0189 20.692C22.1731 20.1201 22.4014 19.5707 22.6977 19.0577L21.9309 17.9672C21.7941 17.7726 21.7304 17.536 21.7511 17.2991C21.7718 17.0622 21.8756 16.8402 22.044 16.6723L22.8329 15.8835C23.0007 15.715 23.2227 15.6113 23.4596 15.5906C23.6966 15.5699 23.9332 15.6335 24.1277 15.7703L25.2183 16.5372C25.7312 16.2407 26.2806 16.0125 26.8526 15.8583L27.082 14.5446C27.1228 14.3101 27.2451 14.0976 27.4275 13.9446C27.6098 13.7916 27.8403 13.708 28.0783 13.7086H29.1909C29.4261 13.7117 29.6529 13.797 29.832 13.9496C30.0111 14.1023 30.1311 14.3128 30.1714 14.5446L30.4009 15.8583C30.9805 16.0106 31.5374 16.2389 32.0571 16.5372L33.1477 15.7703C33.3423 15.6335 33.5789 15.5699 33.8158 15.5906C34.0527 15.6113 34.2747 15.715 34.4426 15.8835L35.2314 16.6723C35.3999 16.8402 35.5036 17.0622 35.5243 17.2991C35.545 17.536 35.4814 17.7726 35.3446 17.9672L34.5714 19.0577C34.8679 19.5706 35.0961 20.12 35.2503 20.692L36.564 20.9214C36.7985 20.9622 37.011 21.0846 37.164 21.2669C37.317 21.4492 37.4006 21.6797 37.4 21.9177ZM31.6423 22.474C31.6423 21.8792 31.4659 21.2976 31.1354 20.803C30.8049 20.3084 30.3352 19.9229 29.7856 19.6953C29.236 19.4676 28.6312 19.408 28.0478 19.5241C27.4644 19.6402 26.9284 19.9266 26.5078 20.3472C26.0872 20.7679 25.8007 21.3038 25.6847 21.8872C25.5686 22.4707 25.6282 23.0754 25.8558 23.625C26.0835 24.1746 26.469 24.6444 26.9636 24.9748C27.4582 25.3053 28.0397 25.4817 28.6346 25.4817C29.4323 25.4817 30.1973 25.1649 30.7614 24.6008C31.3254 24.0367 31.6423 23.2717 31.6423 22.474Z" fill="white"/>
</svg>
