<svg width="110" height="135" viewBox="0 0 110 135" fill="none" xmlns="http://www.w3.org/2000/svg">
<path d="M78.684 60C67.801 60 58.946 68.8555 58.946 79.738C58.946 90.621 67.8015 99.476 78.684 99.476C89.567 99.476 98.422 90.6205 98.422 79.738C98.422 68.855 89.5665 60 78.684 60ZM78.684 96.844C69.2504 96.844 61.579 89.1721 61.579 79.739C61.579 70.3054 69.2509 62.634 78.684 62.634C88.1171 62.634 95.789 70.3059 95.789 79.739C95.789 89.1726 88.1171 96.844 78.684 96.844Z" fill="black"/>
<path d="M86.578 79.7383C86.578 84.0977 83.0428 87.6328 78.6835 87.6328C74.3242 87.6328 70.789 84.0976 70.789 79.7383C70.789 75.375 74.3242 71.8438 78.6835 71.8438C83.0428 71.8438 86.578 75.375 86.578 79.7383Z" fill="black"/>
<path d="M12.8945 48.1562C12.1679 48.1562 11.5781 48.7461 11.5781 49.4727V54.7344C11.5781 55.4609 12.1679 56.0508 12.8945 56.0508C13.6211 56.0508 14.2109 55.4609 14.2109 54.7344V49.4727C14.2109 48.7461 13.6211 48.1562 12.8945 48.1562Z" fill="black"/>
<path d="M18.156 41.5781C17.4294 41.5781 16.8396 42.168 16.8396 42.8945V61.3165C16.8396 62.0431 17.4294 62.6329 18.156 62.6329C18.8826 62.6329 19.4724 62.0431 19.4724 61.3165V42.8945C19.4724 42.168 18.8826 41.5781 18.156 41.5781Z" fill="black"/>
<path d="M23.422 28.4219C22.6954 28.4219 22.1056 29.0117 22.1056 29.7383V74.4763C22.1056 75.2028 22.6954 75.7927 23.422 75.7927C24.1486 75.7927 24.7384 75.2028 24.7384 74.4763V29.7383C24.7384 29.0117 24.1486 28.4219 23.422 28.4219Z" fill="black"/>
<path d="M28.684 36.3164C27.9574 36.3164 27.3676 36.9062 27.3676 37.6328V66.5818C27.3676 67.3084 27.9574 67.8982 28.684 67.8982C29.4106 67.8982 30.0004 67.3084 30.0004 66.5818V37.6328C30.0004 36.9062 29.4106 36.3164 28.684 36.3164Z" fill="black"/>
<path d="M33.949 41.5781C33.2224 41.5781 32.6326 42.168 32.6326 42.8945V61.3165C32.6326 62.0431 33.2224 62.6329 33.949 62.6329C34.6756 62.6329 35.2654 62.0431 35.2654 61.3165V42.8945C35.2654 42.168 34.6756 41.5781 33.949 41.5781Z" fill="black"/>
<path d="M39.211 48.1562C38.4844 48.1562 37.8946 48.7461 37.8946 49.4727V54.7344C37.8946 55.4609 38.4844 56.0508 39.211 56.0508C39.9376 56.0508 40.5274 55.4609 40.5274 54.7344V49.4727C40.5274 48.7461 39.9376 48.1562 39.211 48.1562Z" fill="black"/>
<path d="M44.473 38.9492C43.7464 38.9492 43.1566 39.5391 43.1566 40.2656V63.9496C43.1566 64.6762 43.7464 65.266 44.473 65.266C45.1996 65.266 45.7894 64.6762 45.7894 63.9496V40.2656C45.7894 39.5391 45.1996 38.9492 44.473 38.9492Z" fill="black"/>
<path d="M49.738 35C49.0114 35 48.4216 35.5898 48.4216 36.3164V67.8944C48.4216 68.621 49.0114 69.2108 49.738 69.2108C50.4646 69.2108 51.0544 68.621 51.0544 67.8944V36.3164C51.0544 35.5898 50.4646 35 49.738 35Z" fill="black"/>
<path d="M55 28.4219C54.2734 28.4219 53.6836 29.0117 53.6836 29.7383V74.4763C53.6836 75.2028 54.2734 75.7927 55 75.7927C55.7266 75.7927 56.3164 75.2028 56.3164 74.4763V29.7383C56.3164 29.0117 55.7266 28.4219 55 28.4219Z" fill="black"/>
<path d="M61.578 21.8432V65.3552C60.5663 66.5544 59.6835 67.8552 58.9452 69.2497L58.9491 21.8437C58.9491 21.1211 59.5429 20.5273 60.2655 20.5273C60.9882 20.5273 61.5819 21.1211 61.5819 21.8437L61.578 21.8432Z" fill="black"/>
<path d="M66.844 33.6849V60.7789C65.9221 61.3571 65.0432 62.0016 64.2112 62.7125V33.6855C64.2112 32.9629 64.8049 32.3691 65.5276 32.3691C66.2502 32.3691 66.844 32.9623 66.844 33.6849Z" fill="black"/>
<path d="M70.789 45.5273C70.0624 45.5273 69.4726 46.1172 69.4726 46.8437V57.3707C69.4726 58.0973 70.0624 58.6871 70.789 58.6871C71.5156 58.6871 72.1054 58.0973 72.1054 57.3707V46.8437C72.1054 46.1172 71.5156 45.5273 70.789 45.5273Z" fill="black"/>
<path d="M77.367 42.8945V57.4065C76.4725 57.4573 75.5897 57.5627 74.7342 57.7346V42.8906C74.7342 42.168 75.3279 41.5742 76.0506 41.5742C76.7733 41.5742 77.367 42.168 77.367 42.8906V42.8945Z" fill="black"/>
<path d="M82.633 35V57.738C81.7775 57.5661 80.8947 57.4607 80.0002 57.4099V35.0039C80.0002 34.2812 80.5939 33.6875 81.3166 33.6875C82.0392 33.6875 82.633 34.2812 82.633 35.0039V35Z" fill="black"/>
<path d="M87.895 43.5508V59.3668C87.0512 58.9722 86.1723 58.6285 85.2622 58.3668V43.5508C85.2622 42.8281 85.8559 42.2344 86.5786 42.2344C87.3012 42.2344 87.895 42.8281 87.895 43.5508Z" fill="black"/>
</svg>
