<svg width="72" height="89" viewBox="0 0 72 89" fill="none" xmlns="http://www.w3.org/2000/svg">
<path d="M27.2559 21.9532C25.9212 21.9532 24.7477 22.7154 24.1647 23.8382C23.9116 24.3198 24.0957 24.9173 24.5738 25.1722C25.0545 25.4246 25.6451 25.2391 25.8982 24.7576C26.1539 24.2683 26.655 23.9361 27.2559 23.9361H49.981C50.8452 23.9361 51.5125 24.603 51.5125 25.4735V48.3649C51.5125 48.9443 51.2057 49.4285 50.7557 49.6937H50.7532C50.2853 49.9693 50.1268 50.5744 50.4003 51.0457C50.5307 51.2724 50.7481 51.4372 50.9986 51.5041C51.2518 51.5711 51.5202 51.535 51.7452 51.4011C52.7833 50.7908 53.4762 49.6526 53.4762 48.3649V25.4734C53.4762 23.542 51.9012 21.9531 49.981 21.9531L27.2559 21.9532ZM22.7534 27.2272C20.4292 27.2272 18.5244 29.1458 18.5244 31.4866V52.8974C18.5244 55.2383 20.4293 57.1517 22.7534 57.1517H44.011C46.3352 57.1517 48.2349 55.2383 48.2349 52.8974V31.4866C48.2349 29.1457 46.3352 27.2272 44.011 27.2272H22.7534ZM22.7534 29.2076H44.011C45.2818 29.2076 46.2738 30.2068 46.2738 31.4866V52.8974C46.2738 54.1773 45.2818 55.1765 44.011 55.1765H22.7534C21.4826 55.1765 20.4906 54.1773 20.4906 52.8974V31.4866C20.4906 30.2068 21.4826 29.2076 22.7534 29.2076Z" fill="black"/>
</svg>
