<svg width="88" height="107" viewBox="0 0 88 107" fill="none" xmlns="http://www.w3.org/2000/svg">
<path d="M20.816 10.2578C17.1285 10.2578 14.1191 13.23 14.1191 16.8834L14.1223 78.2285C14.1223 81.8819 17.1316 84.8541 20.8191 84.8541H35.0095H35.0064C35.6564 84.851 36.1815 84.3278 36.1783 83.6837C36.1783 83.0429 35.6533 82.5258 35.0064 82.5228H20.816C18.3911 82.5228 16.4723 80.628 16.4723 78.2285L16.4754 16.8834C16.4754 14.484 18.3941 12.5891 20.8191 12.5891H67.1847C69.6097 12.5891 71.5285 14.4839 71.5285 16.8834V47.934H71.5254C71.5285 48.5749 72.0535 49.0919 72.6972 49.095C73.3472 49.0981 73.8785 48.578 73.8785 47.934V16.8834C73.8785 13.23 70.8691 10.2578 67.1816 10.2578H20.816ZM29.2128 26.3633H29.2159C28.5691 26.3664 28.0472 26.8834 28.0441 27.5243C28.041 28.1683 28.566 28.6915 29.2159 28.6946H58.7847C59.4347 28.6915 59.9598 28.1683 59.9566 27.5243C59.9535 26.8834 59.4316 26.3664 58.7847 26.3633H29.2128ZM29.2128 39.0606L29.2159 39.0637C28.9034 39.0637 28.6034 39.1876 28.3847 39.4074C28.1659 39.6272 28.0409 39.9244 28.044 40.2341C28.044 40.8749 28.569 41.392 29.2159 41.395H58.7847C59.4316 41.392 59.9565 40.8749 59.9565 40.2341C59.9596 39.9245 59.8346 39.6272 59.6159 39.4074C59.3971 39.1876 59.0971 39.0637 58.7846 39.0637H43.9974L29.2128 39.0606ZM66.9472 49.8597C65.1659 49.869 63.3847 50.5501 62.0223 51.8969L41.4695 72.2507C41.3163 72.4024 41.207 72.5913 41.157 72.8018L38.5694 83.4186C38.4757 83.8118 38.5944 84.2266 38.8819 84.5115C39.1726 84.7963 39.5882 84.9139 39.9851 84.8211L50.701 82.2575C50.9104 82.208 51.1042 82.0996 51.2573 81.9479L71.8229 61.5973C73.0573 60.3743 73.7385 58.8047 73.8573 57.2039C73.8729 57.1327 73.8792 57.0584 73.8792 56.9872V56.368C73.8792 56.2906 73.8698 56.2163 73.8542 56.1451C73.7292 54.5754 73.0698 53.0459 71.8667 51.8508C70.5135 50.5133 68.7322 49.8539 66.9479 49.8632L66.9472 49.8597ZM29.2128 51.7607L29.2159 51.7638C28.5659 51.7668 28.0409 52.2901 28.0441 52.9341C28.0472 53.575 28.5691 54.092 29.2159 54.0951H43.9975C44.31 54.0951 44.61 53.9743 44.8319 53.7576C45.0507 53.5378 45.1757 53.2437 45.1788 52.934C45.1788 52.6213 45.0569 52.3241 44.8351 52.1043C44.6132 51.8844 44.3101 51.7606 43.9975 51.7637L29.2128 51.7607ZM66.9568 52.1662C68.1319 52.157 69.3037 52.609 70.2037 53.4976C71.0068 54.2963 71.4475 55.3088 71.5255 56.346V56.3491V56.3646V56.9838V57.0085C71.4474 58.0704 70.9943 59.1138 70.1537 59.9467L49.8321 80.0746L41.3041 82.1118L43.3635 73.6722L63.6947 53.5443C64.6134 52.6341 65.7853 52.1759 66.9603 52.1697L66.9568 52.1662Z" fill="black"/>
</svg>
