<svg width="30" height="37" viewBox="0 0 30 37" fill="none" xmlns="http://www.w3.org/2000/svg">
<path d="M15 28.6158C18.3442 28.6158 21.3717 27.2529 23.5642 25.0517C25.7556 22.8495 27.1107 19.8057 27.1107 16.4453C27.1107 13.0848 25.7545 10.0421 23.5642 7.83878C21.3728 5.63654 18.3439 4.27472 15 4.27472C11.6561 4.27472 8.62827 5.63761 6.43582 7.83878C4.2444 10.041 2.88927 13.0848 2.88927 16.4453C2.88927 19.8057 4.24547 22.8484 6.43582 25.0517C8.62724 27.254 11.6561 28.6158 15 28.6158ZM14.3736 23.2574C14.3736 22.9094 14.6537 22.6278 15 22.6278C15.3463 22.6278 15.6264 22.9094 15.6264 23.2574V23.5957C15.6264 23.9436 15.3463 24.2252 15 24.2252C14.6537 24.2252 14.3736 23.9436 14.3736 23.5957V23.2574ZM11.6283 13.0202C11.6283 13.3681 11.3481 13.6497 11.0019 13.6497C10.6556 13.6497 10.3754 13.3681 10.3754 13.0202C10.3754 11.7365 10.8932 10.5749 11.7306 9.73455C12.5679 8.89306 13.7238 8.37273 15 8.37273C16.2774 8.37273 17.4333 8.89303 18.2695 9.73455C19.1068 10.575 19.6246 11.7376 19.6246 13.0202C19.6246 14.3027 19.1069 15.4654 18.2695 16.3058C17.5717 17.0059 16.6523 17.4845 15.6264 17.6247V19.3773C15.6264 19.7252 15.3462 20.0068 14.9999 20.0068C14.6537 20.0068 14.3735 19.7253 14.3735 19.3773V17.037C14.3735 16.689 14.6537 16.4074 14.9999 16.4074C15.9311 16.4074 16.7748 16.0284 17.3842 15.415C17.9946 14.8015 18.3718 13.9547 18.3718 13.019C18.3718 12.0833 17.9946 11.2354 17.3842 10.623C16.7748 10.0106 15.9311 9.63051 14.9999 9.63051C14.0688 9.63051 13.2251 10.0095 12.6157 10.623C12.0053 11.2364 11.6281 12.0833 11.6281 13.019L11.6283 13.0202ZM24.4498 25.9414C22.0314 28.3716 18.6906 29.8749 15.0003 29.8749C11.31 29.8749 7.96912 28.3718 5.55085 25.9414C3.13252 23.5111 1.63667 20.1538 1.63667 16.4453C1.63667 12.7368 3.13241 9.37935 5.55085 6.94914C7.96917 4.51887 11.31 3.01562 15.0003 3.01562C18.6906 3.01562 22.0315 4.51876 24.4498 6.94914C26.8681 9.37941 28.3639 12.7368 28.3639 16.4453C28.3639 20.1538 26.8682 23.5112 24.4498 25.9414Z" fill="white"/>
</svg>
