<svg width="45" height="55" viewBox="0 0 45 55" fill="none" xmlns="http://www.w3.org/2000/svg">
<path fill-rule="evenodd" clip-rule="evenodd" d="M23.0407 8.30053C24.0646 8.54705 25.0282 8.94658 25.9045 9.47362L27.4606 8.2981C28.0702 7.83784 28.9183 7.89371 29.4616 8.42926L30.3699 9.32669C30.9131 9.86346 30.9684 10.7014 30.5026 11.3037L29.3141 12.8411C29.8475 13.707 30.2519 14.6591 30.5014 15.6707L32.4409 15.9269C33.2017 16.0277 33.761 16.6592 33.761 17.4182V18.6872C33.761 19.445 33.2017 20.0777 32.4409 20.1785L32.1791 20.2125V20.0146C32.1791 18.5537 30.381 17.8105 29.3301 18.8487C29.0166 19.1584 28.8396 19.5761 28.8396 20.0146V26.0317L28.6418 26.0803C28.2718 26.1714 27.8981 26.3292 27.5712 26.5248C27.2603 26.7106 26.9259 26.951 26.76 27.2777L25.9046 26.6304C25.0282 27.1575 24.0646 27.557 23.0407 27.8035L22.7814 29.7198C22.6794 30.4716 22.0403 31.0241 21.2721 31.0241H19.9877C19.2207 31.0241 18.5803 30.4716 18.4783 29.7198L18.219 27.8023C17.1952 27.5558 16.2315 27.1563 15.3564 26.6292L13.8004 27.8047C13.1907 28.265 12.3427 28.2091 11.7994 27.6736L10.8911 26.7762C10.3478 26.2394 10.2925 25.4015 10.7583 24.7991L11.9469 23.2617C11.4134 22.3958 11.0091 21.4437 10.7596 20.4322L8.82005 20.1759C8.05923 20.0751 7.5 19.4436 7.5 18.6846V17.4156C7.5 16.6578 8.05923 16.0251 8.82005 15.9243L10.7596 15.6681C11.0091 14.6565 11.4134 13.7044 11.9469 12.8386L10.7583 11.3011C10.2925 10.6988 10.3491 9.86089 10.8911 9.32411L11.7994 8.42669C12.3427 7.88991 13.1907 7.83529 13.8004 8.29553L15.3564 9.47104C16.2328 8.944 17.1952 8.54445 18.2202 8.29795L18.4796 6.38042C18.5816 5.62871 19.2207 5.07617 19.9889 5.07617H21.2733C22.0403 5.07617 22.6806 5.62871 22.7826 6.38042L23.0407 8.30053ZM36.7736 33.0242C37.2837 32.2907 37.5 31.8438 37.5 30.712V26.0341C37.5 25.5034 36.8424 25.2193 36.4516 25.6054C36.3397 25.716 36.2709 25.8678 36.2709 26.0341V28.5661C36.2709 28.7896 36.0878 28.9693 35.8628 28.9693C35.6367 28.9693 35.4548 28.7884 35.4548 28.5661V25.5435C35.4548 25.0128 34.7972 24.7286 34.4064 25.1148C34.2945 25.2253 34.2257 25.3771 34.2257 25.5435V27.7476C34.2257 27.971 34.0425 28.1508 33.8176 28.1508C33.5915 28.1508 33.4095 27.9698 33.4095 27.7476V24.8063C33.4095 24.2757 32.752 23.9915 32.3611 24.3777C32.2493 24.4882 32.1805 24.64 32.1805 24.8063V26.764C32.1805 26.9862 31.9973 27.1671 31.7724 27.1671C31.5475 27.1671 31.3643 26.9862 31.3643 26.764L31.3619 20.0131C31.3619 19.2748 30.4499 18.8825 29.9066 19.418C29.7517 19.5711 29.6559 19.7824 29.6559 20.0131V28.8661C29.6559 29.0896 29.4727 29.2693 29.2478 29.2693C29.0217 29.2693 28.8397 29.0884 28.8397 28.8661V26.8636C28.5595 26.9328 28.2547 27.0604 27.9941 27.2158C27.6954 27.3943 27.4717 27.5825 27.4717 27.7088V31.5548C27.4717 31.8098 27.5418 32.0101 27.7028 32.2093C28.5349 33.2428 29.4198 33.4419 29.5649 34.6916H35.9979C36.0409 34.4402 36.1147 34.105 36.2376 33.8318C36.3556 33.567 36.6089 33.2622 36.7736 33.0242ZM20.6305 10.5131C16.4158 10.5131 13.0003 13.8877 13.0003 18.052C13.0003 22.2163 16.4158 25.591 20.6305 25.591C24.8452 25.591 28.2608 22.2163 28.2608 18.052C28.2608 13.8877 24.844 10.5131 20.6305 10.5131ZM16.1332 21.6343H21.3816C21.7429 22.4856 22.9696 22.4856 23.3309 21.6343H25.1291C25.3552 21.6343 25.5372 21.4534 25.5372 21.2312C25.5372 21.0077 25.354 20.828 25.1291 20.828H23.3309C22.9696 19.9767 21.7429 19.9767 21.3816 20.828L16.1332 20.8268C15.9071 20.8268 15.7252 21.0077 15.7252 21.2299C15.7252 21.4534 15.9071 21.6343 16.1332 21.6343ZM22.3784 13.8284C21.9458 13.8284 21.566 14.087 21.4037 14.4683H16.1333C15.9072 14.4683 15.7253 14.6493 15.7253 14.8715C15.7253 15.095 15.9084 15.2747 16.1333 15.2747H21.4037C21.7651 16.126 22.9917 16.126 23.3531 15.2747H25.1279C25.354 15.2747 25.5359 15.0938 25.5359 14.8715C25.5359 14.6481 25.3528 14.4683 25.1279 14.4683H23.3531C23.1908 14.087 22.811 13.8284 22.3784 13.8284ZM18.192 17.0078C17.7593 17.0078 17.3796 17.2664 17.2173 17.6477H16.132C15.9059 17.6477 15.7239 17.8287 15.7239 18.0509C15.7239 18.2744 15.9071 18.4541 16.132 18.4541H17.2173C17.5786 19.3054 18.8053 19.3054 19.1666 18.4541H25.1277C25.3538 18.4541 25.5357 18.2732 25.5357 18.0509C25.5357 17.8275 25.3526 17.6477 25.1277 17.6477L19.1666 17.649C19.0044 17.2664 18.6246 17.0078 18.192 17.0078Z" fill="white"/>
</svg>
