<svg width="298" height="146" viewBox="0 0 298 146" fill="none" xmlns="http://www.w3.org/2000/svg">
<path d="M27.043 3.37974C26.9228 4.76194 26.8326 6.11408 26.7725 7.43619C26.7425 8.72824 26.7275 9.71981 26.7275 10.4109C26.7275 11.102 26.7425 11.748 26.7725 12.349C26.8026 12.9499 26.8326 13.4758 26.8627 13.9265H25.826C25.4054 11.5227 24.8945 9.64469 24.2936 8.29255C23.6926 6.91035 22.8964 5.91878 21.9048 5.31782C20.9433 4.71687 19.6662 4.41639 18.0737 4.41639H16.6314V30.1072C16.6314 31.3392 16.7366 32.2556 16.9469 32.8566C17.1873 33.4575 17.653 33.8632 18.3441 34.0735C19.0352 34.2538 20.0418 34.359 21.3639 34.389V35.2904C20.4625 35.2303 19.2906 35.2003 17.8484 35.2003C16.4061 35.1702 14.9337 35.1552 13.4313 35.1552C11.8689 35.1552 10.3965 35.1702 9.01432 35.2003C7.66217 35.2003 6.56543 35.2303 5.72409 35.2904V34.389C7.01615 34.359 8.00772 34.2538 8.69882 34.0735C9.38992 33.8632 9.85566 33.4575 10.096 32.8566C10.3364 32.2556 10.4566 31.3392 10.4566 30.1072V4.41639H8.96925C7.40677 4.41639 6.12974 4.71687 5.13816 5.31782C4.14659 5.91878 3.35032 6.91035 2.74937 8.29255C2.14841 9.64469 1.65263 11.5227 1.26201 13.9265H0.22536C0.285455 13.4758 0.315503 12.9499 0.315503 12.349C0.345551 11.748 0.360575 11.102 0.360575 10.4109C0.360575 9.71981 0.330527 8.72824 0.270431 7.43619C0.240384 6.11408 0.165264 4.76194 0.0450735 3.37974C1.36717 3.40979 2.82449 3.43984 4.41702 3.46989C6.00955 3.49993 7.60208 3.51496 9.19461 3.51496C10.7871 3.51496 12.2445 3.51496 13.5666 3.51496C14.8586 3.51496 16.3009 3.51496 17.8934 3.51496C19.486 3.51496 21.0785 3.49993 22.671 3.46989C24.2635 3.43984 25.7209 3.40979 27.043 3.37974ZM37.5665 -0.000628337V15.9547C38.3177 14.272 39.3543 13.0852 40.6764 12.3941C42.0286 11.703 43.4859 11.3574 45.0484 11.3574C46.2803 11.3574 47.2869 11.5227 48.0682 11.8532C48.8494 12.1837 49.4804 12.6044 49.9612 13.1152C50.472 13.6861 50.8325 14.4223 51.0429 15.3237C51.2833 16.2251 51.4035 17.4421 51.4035 18.9745V31.0988C51.4035 32.3608 51.6288 33.2171 52.0795 33.6679C52.5603 34.1186 53.3566 34.3439 54.4683 34.3439V35.2904C53.9275 35.2604 53.1011 35.2303 51.9894 35.2003C50.8776 35.1402 49.7809 35.1101 48.6992 35.1101C47.6174 35.1101 46.5507 35.1402 45.4991 35.2003C44.4474 35.2303 43.6511 35.2604 43.1103 35.2904V34.3439C44.0718 34.3439 44.7479 34.1186 45.1385 33.6679C45.5291 33.2171 45.7244 32.3608 45.7244 31.0988V17.4421C45.7244 16.6308 45.6493 15.9096 45.4991 15.2786C45.3488 14.6176 45.0484 14.1068 44.5976 13.7462C44.177 13.3556 43.5309 13.1603 42.6596 13.1603C41.698 13.1603 40.8266 13.4307 40.0454 13.9716C39.2942 14.4824 38.6933 15.2185 38.2425 16.1801C37.7918 17.1116 37.5665 18.1782 37.5665 19.3802V31.0988C37.5665 32.3608 37.7618 33.2171 38.1524 33.6679C38.5731 34.1186 39.2491 34.3439 40.1806 34.3439V35.2904C39.6698 35.2604 38.9036 35.2303 37.882 35.2003C36.8904 35.1402 35.8538 35.1101 34.772 35.1101C33.6903 35.1101 32.5635 35.1402 31.3917 35.2003C30.2498 35.2303 29.3935 35.2604 28.8226 35.2904V34.3439C29.9343 34.3439 30.7156 34.1186 31.1663 33.6679C31.6471 33.2171 31.8875 32.3608 31.8875 31.0988V5.40796C31.8875 4.05582 31.6621 3.06424 31.2114 2.43324C30.7907 1.77219 29.9944 1.44166 28.8226 1.44166V0.495161C29.7841 0.585303 30.7156 0.630374 31.617 0.630374C32.7588 0.630374 33.8255 0.585303 34.8171 0.495161C35.8087 0.37497 36.7251 0.209707 37.5665 -0.000628337ZM67.6095 11.3574C70.2537 11.3574 72.327 12.1537 73.8294 13.7462C75.3318 15.3387 76.083 17.8778 76.083 21.3633H60.8938L60.8488 20.5069H70.8547C70.9148 19.0346 70.8246 17.6825 70.5842 16.4505C70.3438 15.1885 69.9532 14.1819 69.4124 13.4307C68.9016 12.6795 68.2255 12.3039 67.3841 12.3039C66.2423 12.3039 65.2508 12.98 64.4094 14.3321C63.5681 15.6542 63.0423 17.8327 62.8319 20.8675L63.0122 21.138C62.9521 21.5286 62.907 21.9492 62.877 22.4C62.877 22.8507 62.877 23.3014 62.877 23.7521C62.877 25.8254 63.1775 27.5381 63.7784 28.8903C64.3794 30.2424 65.1606 31.234 66.1221 31.865C67.0837 32.496 68.0752 32.8115 69.0969 32.8115C69.788 32.8115 70.4941 32.7063 71.2152 32.496C71.9364 32.2857 72.6425 31.895 73.3336 31.3241C74.0247 30.7532 74.6557 29.9419 75.2266 28.8903L76.083 29.2508C75.7524 30.3025 75.1966 31.3542 74.4153 32.4058C73.6641 33.4275 72.6876 34.2688 71.4857 34.9299C70.2838 35.5909 68.8715 35.9214 67.2489 35.9214C65.2057 35.9214 63.4028 35.4707 61.8403 34.5693C60.2779 33.6679 59.0609 32.3307 58.1895 30.5579C57.3182 28.7551 56.8825 26.5616 56.8825 23.9775C56.8825 21.2431 57.3332 18.9445 58.2346 17.0815C59.1661 15.2185 60.4431 13.8063 62.0657 12.8448C63.6883 11.8532 65.5362 11.3574 67.6095 11.3574ZM93.795 11.3574C94.7265 11.3574 95.4927 11.5527 96.0937 11.9433C96.7247 12.334 97.1904 12.8298 97.4909 13.4307C97.7914 14.0317 97.9416 14.6627 97.9416 15.3237C97.9416 16.3153 97.6412 17.1416 97.0402 17.8027C96.4693 18.4637 95.7031 18.7942 94.7415 18.7942C93.8401 18.7942 93.1039 18.5538 92.533 18.0731C91.9621 17.5923 91.6767 16.9313 91.6767 16.0899C91.6767 15.3387 91.857 14.7077 92.2175 14.1969C92.6082 13.6861 93.0439 13.2805 93.5246 12.98C93.1941 12.7997 92.8185 12.7396 92.3978 12.7997C91.6767 12.8598 91.0156 13.1152 90.4147 13.5659C89.8137 14.0166 89.3029 14.5725 88.8822 15.2336C88.4616 15.8946 88.131 16.6007 87.8907 17.3519C87.6803 18.1031 87.5752 18.8243 87.5752 19.5154V30.6481C87.5752 32.1204 87.9508 33.112 88.702 33.6228C89.4531 34.1035 90.5499 34.3439 91.9922 34.3439V35.2904C91.3011 35.2604 90.2945 35.2303 88.9724 35.2003C87.6803 35.1402 86.3282 35.1101 84.9159 35.1101C83.7441 35.1101 82.5722 35.1402 81.4004 35.2003C80.2585 35.2303 79.4022 35.2604 78.8313 35.2904V34.3439C79.943 34.3439 80.7243 34.1186 81.175 33.6679C81.6558 33.2171 81.8961 32.3608 81.8961 31.0988V16.9012C81.8961 15.5491 81.6708 14.5575 81.2201 13.9265C80.7994 13.2654 80.0031 12.9349 78.8313 12.9349V11.9884C79.7928 12.0786 80.7243 12.1236 81.6257 12.1236C82.7375 12.1236 83.7892 12.0786 84.7807 11.9884C85.8023 11.8682 86.7338 11.703 87.5752 11.4926V16.1801C87.9357 15.3387 88.4015 14.5575 88.9724 13.8364C89.5733 13.1152 90.2795 12.5293 91.0907 12.0786C91.9321 11.5978 92.8335 11.3574 93.795 11.3574ZM110.172 11.3574C112.816 11.3574 114.89 12.1537 116.392 13.7462C117.894 15.3387 118.646 17.8778 118.646 21.3633H103.457L103.411 20.5069H113.417C113.477 19.0346 113.387 17.6825 113.147 16.4505C112.907 15.1885 112.516 14.1819 111.975 13.4307C111.464 12.6795 110.788 12.3039 109.947 12.3039C108.805 12.3039 107.813 12.98 106.972 14.3321C106.131 15.6542 105.605 17.8327 105.395 20.8675L105.575 21.138C105.515 21.5286 105.47 21.9492 105.44 22.4C105.44 22.8507 105.44 23.3014 105.44 23.7521C105.44 25.8254 105.74 27.5381 106.341 28.8903C106.942 30.2424 107.723 31.234 108.685 31.865C109.646 32.496 110.638 32.8115 111.66 32.8115C112.351 32.8115 113.057 32.7063 113.778 32.496C114.499 32.2857 115.205 31.895 115.896 31.3241C116.587 30.7532 117.218 29.9419 117.789 28.8903L118.646 29.2508C118.315 30.3025 117.759 31.3542 116.978 32.4058C116.227 33.4275 115.25 34.2688 114.048 34.9299C112.846 35.5909 111.434 35.9214 109.812 35.9214C107.768 35.9214 105.966 35.4707 104.403 34.5693C102.841 33.6679 101.624 32.3307 100.752 30.5579C99.8809 28.7551 99.4452 26.5616 99.4452 23.9775C99.4452 21.2431 99.8959 18.9445 100.797 17.0815C101.729 15.2185 103.006 13.8063 104.628 12.8448C106.251 11.8532 108.099 11.3574 110.172 11.3574ZM125.101 2.74874C125.793 2.74874 126.379 2.89898 126.859 3.19946C127.37 3.46989 127.791 3.83046 128.121 4.28117C128.452 4.76194 128.677 5.31782 128.797 5.94882C128.948 6.57982 129.023 7.1958 129.023 7.79676C129.023 9.2691 128.632 10.6363 127.851 11.8983C127.1 13.1603 125.928 14.1669 124.335 14.9181L123.93 14.1068C124.801 13.7162 125.552 13.1453 126.183 12.3941C126.844 11.6128 127.22 10.8015 127.31 9.96019C127.43 9.41934 127.43 8.90852 127.31 8.42776C126.709 9.02872 125.928 9.32919 124.966 9.32919C124.035 9.32919 123.254 9.04374 122.623 8.47283C121.992 7.90193 121.676 7.09064 121.676 6.03897C121.676 5.07744 121.992 4.2962 122.623 3.69524C123.284 3.06424 124.11 2.74874 125.101 2.74874ZM140.258 11.3574C141.52 11.3574 142.602 11.5377 143.503 11.8983C144.405 12.2588 145.066 12.5743 145.487 12.8448C146.508 13.596 147.124 13.1152 147.334 11.4025H148.326C148.266 12.2739 148.221 13.3105 148.191 14.5124C148.161 15.6843 148.146 17.2618 148.146 19.2449H147.154C147.004 18.1332 146.718 17.0515 146.298 15.9998C145.877 14.9481 145.261 14.0767 144.45 13.3856C143.639 12.6645 142.572 12.3039 141.25 12.3039C140.318 12.3039 139.537 12.5743 138.906 13.1152C138.305 13.6561 138.005 14.4223 138.005 15.4139C138.005 16.3153 138.275 17.1116 138.816 17.8027C139.357 18.4637 140.048 19.0947 140.889 19.6957C141.761 20.2666 142.662 20.8976 143.594 21.5887C144.675 22.3098 145.637 23.046 146.478 23.7972C147.319 24.5183 147.996 25.3296 148.506 26.231C149.017 27.1024 149.273 28.1391 149.273 29.341C149.273 30.7232 148.882 31.9101 148.101 32.9016C147.349 33.8632 146.343 34.6144 145.081 35.1552C143.849 35.666 142.482 35.9214 140.979 35.9214C140.168 35.9214 139.432 35.8463 138.771 35.6961C138.11 35.5458 137.524 35.3505 137.013 35.1101C136.622 34.8998 136.262 34.7045 135.931 34.5242C135.631 34.3439 135.315 34.1937 134.985 34.0735C134.684 33.9233 134.414 33.9834 134.174 34.2538C133.963 34.5242 133.798 34.9749 133.678 35.6059H132.686C132.746 34.6444 132.791 33.4725 132.821 32.0903C132.851 30.7082 132.866 28.8752 132.866 26.5916H133.858C134.068 28.2442 134.384 29.7016 134.805 30.9636C135.255 32.1955 135.901 33.1721 136.743 33.8932C137.584 34.5843 138.666 34.9299 139.988 34.9299C140.559 34.9299 141.1 34.8097 141.61 34.5693C142.151 34.3289 142.587 33.9533 142.917 33.4425C143.278 32.9317 143.458 32.2406 143.458 31.3692C143.458 30.0471 143.008 28.9504 142.106 28.079C141.205 27.2076 140.078 26.2761 138.726 25.2845C137.704 24.5333 136.743 23.7972 135.841 23.076C134.97 22.3549 134.249 21.5436 133.678 20.6422C133.137 19.7407 132.866 18.674 132.866 17.4421C132.866 16.0899 133.212 14.9782 133.903 14.1068C134.594 13.2054 135.496 12.5293 136.607 12.0786C137.749 11.5978 138.966 11.3574 140.258 11.3574ZM169.297 35.6059C168.005 35.6059 166.909 35.3656 166.007 34.8848C165.106 34.374 164.43 33.6979 163.979 32.8566C163.528 31.9852 163.303 31.0237 163.303 29.972C163.303 28.6799 163.603 27.6283 164.204 26.817C164.805 25.9756 165.571 25.3146 166.503 24.8338C167.464 24.323 168.471 23.9023 169.523 23.5718C170.574 23.2112 171.566 22.8807 172.497 22.5802C173.429 22.2497 174.195 21.8741 174.796 21.4535C175.397 21.0328 175.698 20.4769 175.698 19.7858V16.4956C175.698 15.534 175.547 14.7528 175.247 14.1519C174.976 13.5209 174.556 13.0551 173.985 12.7546C173.444 12.4241 172.753 12.2588 171.912 12.2588C171.281 12.2588 170.619 12.349 169.928 12.5293C169.237 12.7096 168.666 13.0551 168.216 13.5659C168.997 13.7763 169.598 14.1669 170.019 14.7378C170.469 15.3087 170.695 15.9998 170.695 16.8111C170.695 17.7426 170.379 18.4787 169.748 19.0196C169.147 19.5304 168.381 19.7858 167.449 19.7858C166.458 19.7858 165.707 19.4703 165.196 18.8393C164.685 18.2083 164.43 17.4721 164.43 16.6308C164.43 15.7895 164.64 15.0984 165.061 14.5575C165.481 13.9866 166.067 13.4758 166.818 13.0251C167.57 12.5143 168.531 12.1086 169.703 11.8081C170.875 11.5077 172.152 11.3574 173.534 11.3574C174.856 11.3574 176.028 11.5077 177.05 11.8081C178.071 12.0786 178.943 12.5743 179.664 13.2955C180.385 13.9866 180.851 14.843 181.061 15.8646C181.271 16.8862 181.377 18.1332 181.377 19.6055V31.9551C181.377 32.7063 181.467 33.2472 181.647 33.5777C181.827 33.8782 182.113 34.0284 182.503 34.0284C182.804 34.0284 183.089 33.9533 183.36 33.8031C183.63 33.6528 183.931 33.4425 184.261 33.1721L184.757 33.9383C184.096 34.4491 183.405 34.8547 182.684 35.1552C181.962 35.4557 181.091 35.6059 180.069 35.6059C179.018 35.6059 178.176 35.4557 177.545 35.1552C176.945 34.8547 176.494 34.419 176.193 33.8481C175.923 33.2772 175.773 32.6012 175.743 31.8199C175.021 33.0218 174.135 33.9533 173.083 34.6144C172.032 35.2754 170.77 35.6059 169.297 35.6059ZM172.002 33.0819C172.723 33.0819 173.384 32.8866 173.985 32.496C174.616 32.1054 175.187 31.5194 175.698 30.7382V21.6337C175.397 22.0845 174.961 22.4901 174.39 22.8507C173.85 23.2112 173.264 23.5718 172.633 23.9324C172.002 24.293 171.401 24.7136 170.83 25.1944C170.289 25.6451 169.823 26.216 169.433 26.9071C169.072 27.5682 168.892 28.4245 168.892 29.4762C168.892 30.6481 169.177 31.5495 169.748 32.1805C170.319 32.7814 171.07 33.0819 172.002 33.0819ZM202.233 11.3574C203.495 11.3574 204.502 11.5227 205.253 11.8532C206.034 12.1837 206.665 12.6044 207.146 13.1152C207.687 13.6861 208.062 14.4223 208.273 15.3237C208.513 16.2251 208.633 17.4421 208.633 18.9745V31.0988C208.633 32.3608 208.859 33.2171 209.309 33.6679C209.79 34.1186 210.586 34.3439 211.698 34.3439V35.2904C211.157 35.2604 210.316 35.2303 209.174 35.2003C208.062 35.1402 206.981 35.1101 205.929 35.1101C204.817 35.1101 203.735 35.1402 202.684 35.2003C201.632 35.2303 200.851 35.2604 200.34 35.2904V34.3439C201.302 34.3439 201.978 34.1186 202.368 33.6679C202.759 33.2171 202.954 32.3608 202.954 31.0988V17.4421C202.954 16.6308 202.879 15.9096 202.729 15.2786C202.579 14.6176 202.278 14.1068 201.827 13.7462C201.377 13.3556 200.731 13.1603 199.889 13.1603C198.898 13.1603 198.011 13.4307 197.23 13.9716C196.479 14.5124 195.878 15.2636 195.427 16.2251C195.007 17.1566 194.796 18.2083 194.796 19.3802V31.0988C194.796 32.3608 194.992 33.2171 195.382 33.6679C195.773 34.1186 196.449 34.3439 197.41 34.3439V35.2904C196.9 35.2604 196.133 35.2303 195.112 35.2003C194.09 35.1402 193.053 35.1101 192.002 35.1101C190.89 35.1101 189.763 35.1402 188.621 35.2003C187.48 35.2303 186.623 35.2604 186.052 35.2904V34.3439C187.164 34.3439 187.945 34.1186 188.396 33.6679C188.877 33.2171 189.117 32.3608 189.117 31.0988V16.9012C189.117 15.5491 188.892 14.5575 188.441 13.9265C188.02 13.2654 187.224 12.9349 186.052 12.9349V11.9884C187.014 12.0786 187.945 12.1236 188.847 12.1236C189.959 12.1236 191.01 12.0786 192.002 11.9884C193.023 11.8682 193.955 11.703 194.796 11.4926V15.9998C195.547 14.2871 196.584 13.0852 197.906 12.3941C199.228 11.703 200.671 11.3574 202.233 11.3574ZM13.5666 54.4609V55.3623C12.605 55.3924 11.8689 55.5126 11.358 55.7229C10.8773 55.9032 10.5468 56.2637 10.3665 56.8046C10.1862 57.3154 10.096 58.1267 10.096 59.2385V81.594C10.096 82.6757 10.1862 83.487 10.3665 84.0278C10.5468 84.5687 10.8773 84.9293 11.358 85.1096C11.8689 85.2899 12.605 85.41 13.5666 85.4701V86.3716C12.8154 86.3115 11.8538 86.2814 10.682 86.2814C9.51011 86.2514 8.32322 86.2364 7.12131 86.2364C5.76917 86.2364 4.50716 86.2514 3.3353 86.2814C2.16344 86.2814 1.20191 86.3115 0.450718 86.3716V85.4701C1.44229 85.41 2.17846 85.2899 2.65923 85.1096C3.17004 84.9293 3.50056 84.5687 3.6508 84.0278C3.83109 83.487 3.92123 82.6757 3.92123 81.594V59.2385C3.92123 58.1267 3.83109 57.3154 3.6508 56.8046C3.50056 56.2637 3.17004 55.9032 2.65923 55.7229C2.17846 55.5126 1.44229 55.3924 0.450718 55.3623V54.4609C1.20191 54.4909 2.16344 54.521 3.3353 54.551C4.50716 54.5811 5.76917 54.5961 7.12131 54.5961C8.32322 54.5961 9.51011 54.5811 10.682 54.551C11.8538 54.521 12.8154 54.4909 13.5666 54.4609ZM32.5984 62.4386C33.8604 62.4386 34.867 62.6038 35.6182 62.9343C36.3994 63.2649 37.0304 63.6855 37.5112 64.1963C38.052 64.7673 38.4276 65.5034 38.638 66.4049C38.8784 67.3063 38.9986 68.5232 38.9986 70.0557V82.1799C38.9986 83.4419 39.2239 84.2983 39.6746 84.749C40.1554 85.1997 40.9517 85.4251 42.0634 85.4251V86.3716C41.5226 86.3415 40.6812 86.3115 39.5394 86.2814C38.4276 86.2213 37.3459 86.1913 36.2943 86.1913C35.1825 86.1913 34.1008 86.2213 33.0491 86.2814C31.9974 86.3115 31.2162 86.3415 30.7054 86.3716V85.4251C31.6669 85.4251 32.343 85.1997 32.7336 84.749C33.1242 84.2983 33.3195 83.4419 33.3195 82.1799V68.5232C33.3195 67.7119 33.2444 66.9908 33.0942 66.3598C32.9439 65.6987 32.6435 65.1879 32.1927 64.8273C31.742 64.4367 31.096 64.2414 30.2547 64.2414C29.2631 64.2414 28.3767 64.5118 27.5954 65.0527C26.8442 65.5936 26.2433 66.3448 25.7926 67.3063C25.3719 68.2378 25.1616 69.2894 25.1616 70.4613V82.1799C25.1616 83.4419 25.3569 84.2983 25.7475 84.749C26.1381 85.1997 26.8142 85.4251 27.7757 85.4251V86.3716C27.2649 86.3415 26.4987 86.3115 25.4771 86.2814C24.4554 86.2213 23.4188 86.1913 22.3671 86.1913C21.2554 86.1913 20.1286 86.2213 18.9868 86.2814C17.8449 86.3115 16.9886 86.3415 16.4177 86.3716V85.4251C17.5294 85.4251 18.3107 85.1997 18.7614 84.749C19.2422 84.2983 19.4826 83.4419 19.4826 82.1799V67.9824C19.4826 66.6302 19.2572 65.6386 18.8065 65.0076C18.3858 64.3466 17.5895 64.0161 16.4177 64.0161V63.0696C17.3792 63.1597 18.3107 63.2048 19.2121 63.2048C20.3239 63.2048 21.3756 63.1597 22.3671 63.0696C23.3888 62.9494 24.3202 62.7841 25.1616 62.5738V67.0809C25.9128 65.3682 26.9494 64.1663 28.2715 63.4752C29.5936 62.7841 31.0359 62.4386 32.5984 62.4386ZM52.3577 55.6778V63.1146H58.1269V64.0161H52.3577V81.9546C52.3577 83.0363 52.553 83.8025 52.9436 84.2532C53.3343 84.7039 53.8901 84.9293 54.6113 84.9293C55.3024 84.9293 55.9334 84.6739 56.5043 84.1631C57.0752 83.6222 57.586 82.7358 58.0367 81.5038L58.848 81.8644C58.3973 83.3368 57.6912 84.5687 56.7296 85.5603C55.7982 86.5218 54.4761 87.0026 52.7633 87.0026C51.7417 87.0026 50.8703 86.8674 50.1492 86.5969C49.4581 86.3565 48.8571 85.996 48.3463 85.5152C47.6853 84.8241 47.2346 83.9978 46.9942 83.0363C46.7838 82.0747 46.6787 80.7977 46.6787 79.2052V64.0161H42.7124V63.1146H46.6787V56.8497C47.7604 56.8196 48.767 56.7145 49.6985 56.5342C50.63 56.3539 51.5164 56.0684 52.3577 55.6778ZM70.9547 62.4386C73.5989 62.4386 75.6722 63.2348 77.1745 64.8273C78.6769 66.4199 79.4281 68.9589 79.4281 72.4444H64.239L64.1939 71.5881H74.1998C74.2599 70.1158 74.1698 68.7636 73.9294 67.5316C73.689 66.2696 73.2984 65.263 72.7575 64.5118C72.2467 63.7607 71.5706 63.3851 70.7293 63.3851C69.5875 63.3851 68.5959 64.0611 67.7546 65.4133C66.9132 66.7354 66.3874 68.9138 66.1771 71.9487L66.3574 72.2191C66.2973 72.6097 66.2522 73.0304 66.2221 73.4811C66.2221 73.9318 66.2221 74.3825 66.2221 74.8332C66.2221 76.9065 66.5226 78.6193 67.1236 79.9714C67.7245 81.3236 68.5058 82.3151 69.4673 82.9461C70.4288 83.5771 71.4204 83.8926 72.442 83.8926C73.1331 83.8926 73.8392 83.7875 74.5604 83.5771C75.2815 83.3668 75.9877 82.9762 76.6788 82.4053C77.3699 81.8344 78.0009 81.0231 78.5718 79.9714L79.4281 80.332C79.0976 81.3836 78.5417 82.4353 77.7605 83.487C77.0093 84.5086 76.0327 85.3499 74.8308 86.011C73.6289 86.672 72.2167 87.0026 70.5941 87.0026C68.5508 87.0026 66.748 86.5519 65.1855 85.6504C63.623 84.749 62.4061 83.4119 61.5347 81.6391C60.6633 79.8362 60.2276 77.6427 60.2276 75.0586C60.2276 72.3243 60.6783 70.0256 61.5798 68.1626C62.5113 66.2997 63.7883 64.8874 65.4109 63.9259C67.0334 62.9343 68.8814 62.4386 70.9547 62.4386ZM90.826 51.0805V82.1799C90.826 83.4419 91.0513 84.2983 91.502 84.749C91.9828 85.1997 92.7791 85.4251 93.8908 85.4251V86.3716C93.35 86.3415 92.5237 86.3115 91.4119 86.2814C90.3302 86.2213 89.2184 86.1913 88.0766 86.1913C86.9648 86.1913 85.823 86.2213 84.6511 86.2814C83.5093 86.3115 82.653 86.3415 82.0821 86.3716V85.4251C83.1938 85.4251 83.9751 85.1997 84.4258 84.749C84.9066 84.2983 85.1469 83.4419 85.1469 82.1799V56.4891C85.1469 55.137 84.9366 54.1454 84.5159 53.5144C84.0953 52.8533 83.284 52.5228 82.0821 52.5228V51.5763C83.0436 51.6664 83.9751 51.7115 84.8765 51.7115C86.0183 51.7115 87.085 51.6664 88.0766 51.5763C89.0682 51.4561 89.9846 51.2908 90.826 51.0805ZM109.834 54.4609C115.603 54.4609 119.87 55.813 122.635 58.5173C125.429 61.1916 126.826 65.0377 126.826 70.0557C126.826 73.3309 126.135 76.2004 124.753 78.6643C123.401 81.0982 121.433 82.9912 118.849 84.3434C116.264 85.6955 113.124 86.3716 109.429 86.3716C108.978 86.3716 108.362 86.3565 107.581 86.3265C106.829 86.2965 106.033 86.2814 105.192 86.2814C104.381 86.2514 103.629 86.2364 102.938 86.2364C101.706 86.2364 100.504 86.2514 99.3325 86.2814C98.1607 86.2814 97.1991 86.3115 96.4479 86.3716V85.4701C97.4395 85.41 98.1757 85.2899 98.6564 85.1096C99.1673 84.9293 99.4978 84.5687 99.648 84.0278C99.8283 83.487 99.9184 82.6757 99.9184 81.594V59.2385C99.9184 58.1267 99.8283 57.3154 99.648 56.8046C99.4978 56.2637 99.1673 55.9032 98.6564 55.7229C98.1757 55.5126 97.4395 55.3924 96.4479 55.3623V54.4609C97.1991 54.4909 98.1607 54.536 99.3325 54.5961C100.504 54.6261 101.676 54.6261 102.848 54.5961C103.93 54.566 105.147 54.536 106.499 54.506C107.851 54.4759 108.963 54.4609 109.834 54.4609ZM109.429 55.2722C108.046 55.2722 107.145 55.5276 106.724 56.0384C106.304 56.5492 106.093 57.5858 106.093 59.1483V81.6841C106.093 83.2466 106.304 84.2833 106.724 84.7941C107.175 85.3049 108.091 85.5603 109.474 85.5603C112.268 85.5603 114.447 84.9744 116.009 83.8025C117.602 82.6006 118.713 80.8578 119.344 78.5742C120.005 76.2906 120.336 73.5111 120.336 70.2359C120.336 66.8706 119.975 64.0912 119.254 61.8977C118.563 59.6742 117.421 58.0215 115.829 56.9398C114.236 55.8281 112.103 55.2722 109.429 55.2722ZM141.601 62.4386C143.675 62.4386 145.507 62.8592 147.1 63.7006C148.723 64.5118 150 65.8189 150.931 67.6218C151.893 69.4247 152.373 71.7984 152.373 74.7431C152.373 77.6878 151.893 80.0615 150.931 81.8644C150 83.6673 148.723 84.9744 147.1 85.7856C145.507 86.5969 143.675 87.0026 141.601 87.0026C139.528 87.0026 137.68 86.5969 136.057 85.7856C134.435 84.9744 133.158 83.6673 132.226 81.8644C131.295 80.0615 130.829 77.6878 130.829 74.7431C130.829 71.7984 131.295 69.4247 132.226 67.6218C133.158 65.8189 134.435 64.5118 136.057 63.7006C137.68 62.8592 139.528 62.4386 141.601 62.4386ZM141.601 63.34C140.189 63.34 139.032 64.2414 138.131 66.0443C137.259 67.8171 136.824 70.7167 136.824 74.7431C136.824 78.7695 137.259 81.6691 138.131 83.4419C139.032 85.2147 140.189 86.1011 141.601 86.1011C142.983 86.1011 144.125 85.2147 145.027 83.4419C145.928 81.6691 146.379 78.7695 146.379 74.7431C146.379 70.7167 145.928 67.8171 145.027 66.0443C144.125 64.2414 142.983 63.34 141.601 63.34ZM166.868 62.4386C167.98 62.4386 169.001 62.5738 169.933 62.8442C170.894 63.0846 171.721 63.4301 172.412 63.8808C173.133 64.3316 173.704 64.9025 174.125 65.5936C174.545 66.2546 174.756 66.9908 174.756 67.8021C174.756 68.7936 174.455 69.5899 173.854 70.1909C173.253 70.7918 172.502 71.0923 171.601 71.0923C170.669 71.0923 169.903 70.8219 169.302 70.281C168.731 69.7402 168.446 69.019 168.446 68.1176C168.446 67.2462 168.701 66.525 169.212 65.9541C169.723 65.3832 170.339 65.0076 171.06 64.8273C170.789 64.4367 170.369 64.1212 169.798 63.8808C169.227 63.6104 168.596 63.4752 167.905 63.4752C167.003 63.4752 166.192 63.7156 165.471 64.1963C164.75 64.6471 164.119 65.3382 163.578 66.2696C163.067 67.1711 162.661 68.2979 162.361 69.65C162.09 70.9721 161.955 72.5045 161.955 74.2473C161.955 76.6812 162.241 78.6042 162.812 80.0165C163.413 81.4287 164.179 82.4353 165.11 83.0363C166.042 83.6072 167.033 83.8926 168.085 83.8926C168.716 83.8926 169.392 83.7724 170.113 83.5321C170.834 83.2917 171.54 82.886 172.232 82.3151C172.953 81.7442 173.599 80.9329 174.17 79.8813L175.026 80.1968C174.696 81.2484 174.155 82.3001 173.403 83.3518C172.682 84.4034 171.736 85.2748 170.564 85.9659C169.392 86.657 167.965 87.0026 166.282 87.0026C164.359 87.0026 162.616 86.5669 161.054 85.6955C159.491 84.7941 158.244 83.4419 157.313 81.6391C156.411 79.8362 155.961 77.5976 155.961 74.9234C155.961 72.2792 156.426 70.0406 157.358 68.2077C158.289 66.3448 159.581 64.9175 161.234 63.9259C162.917 62.9343 164.795 62.4386 166.868 62.4386ZM196.332 55.6778V63.1146H202.101V64.0161H196.332V81.9546C196.332 83.0363 196.527 83.8025 196.917 84.2532C197.308 84.7039 197.864 84.9293 198.585 84.9293C199.276 84.9293 199.907 84.6739 200.478 84.1631C201.049 83.6222 201.56 82.7358 202.011 81.5038L202.822 81.8644C202.371 83.3368 201.665 84.5687 200.703 85.5603C199.772 86.5218 198.45 87.0026 196.737 87.0026C195.716 87.0026 194.844 86.8674 194.123 86.5969C193.432 86.3565 192.831 85.996 192.32 85.5152C191.659 84.8241 191.208 83.9978 190.968 83.0363C190.758 82.0747 190.652 80.7977 190.652 79.2052V64.0161H186.686V63.1146H190.652V56.8497C191.734 56.8196 192.741 56.7145 193.672 56.5342C194.604 56.3539 195.49 56.0684 196.332 55.6778ZM212.087 51.0805V67.0359C212.838 65.3532 213.875 64.1663 215.197 63.4752C216.549 62.7841 218.006 62.4386 219.569 62.4386C220.801 62.4386 221.807 62.6038 222.589 62.9343C223.37 63.2649 224.001 63.6855 224.482 64.1963C224.992 64.7673 225.353 65.5034 225.563 66.4049C225.804 67.3063 225.924 68.5232 225.924 70.0557V82.1799C225.924 83.4419 226.149 84.2983 226.6 84.749C227.081 85.1997 227.877 85.4251 228.989 85.4251V86.3716C228.448 86.3415 227.622 86.3115 226.51 86.2814C225.398 86.2213 224.301 86.1913 223.22 86.1913C222.138 86.1913 221.071 86.2213 220.019 86.2814C218.968 86.3115 218.172 86.3415 217.631 86.3716V85.4251C218.592 85.4251 219.268 85.1997 219.659 84.749C220.05 84.2983 220.245 83.4419 220.245 82.1799V68.5232C220.245 67.7119 220.17 66.9908 220.019 66.3598C219.869 65.6987 219.569 65.1879 219.118 64.8273C218.697 64.4367 218.051 64.2414 217.18 64.2414C216.218 64.2414 215.347 64.5118 214.566 65.0527C213.815 65.5635 213.214 66.2997 212.763 67.2612C212.312 68.1927 212.087 69.2594 212.087 70.4613V82.1799C212.087 83.4419 212.282 84.2983 212.673 84.749C213.093 85.1997 213.77 85.4251 214.701 85.4251V86.3716C214.19 86.3415 213.424 86.3115 212.402 86.2814C211.411 86.2213 210.374 86.1913 209.292 86.1913C208.211 86.1913 207.084 86.2213 205.912 86.2814C204.77 86.3115 203.914 86.3415 203.343 86.3716V85.4251C204.455 85.4251 205.236 85.1997 205.687 84.749C206.167 84.2983 206.408 83.4419 206.408 82.1799V56.4891C206.408 55.137 206.182 54.1454 205.732 53.5144C205.311 52.8533 204.515 52.5228 203.343 52.5228V51.5763C204.304 51.6664 205.236 51.7115 206.137 51.7115C207.279 51.7115 208.346 51.6664 209.337 51.5763C210.329 51.4561 211.246 51.2908 212.087 51.0805ZM237.037 86.6871C235.745 86.6871 234.648 86.4467 233.747 85.9659C232.845 85.4551 232.169 84.779 231.718 83.9377C231.268 83.0663 231.042 82.1048 231.042 81.0531C231.042 79.7611 231.343 78.7094 231.944 77.8981C232.545 77.0568 233.311 76.3957 234.242 75.915C235.204 75.4042 236.21 74.9835 237.262 74.653C238.314 74.2924 239.305 73.9619 240.237 73.6614C241.168 73.3309 241.935 72.9553 242.536 72.5346C243.136 72.1139 243.437 71.558 243.437 70.8669V67.5767C243.437 66.6152 243.287 65.8339 242.986 65.233C242.716 64.602 242.295 64.1363 241.724 63.8358C241.183 63.5052 240.492 63.34 239.651 63.34C239.02 63.34 238.359 63.4301 237.668 63.6104C236.977 63.7907 236.406 64.1363 235.955 64.6471C236.736 64.8574 237.337 65.248 237.758 65.8189C238.209 66.3898 238.434 67.0809 238.434 67.8922C238.434 68.8237 238.119 69.5599 237.488 70.1007C236.887 70.6115 236.12 70.8669 235.189 70.8669C234.197 70.8669 233.446 70.5514 232.935 69.9204C232.424 69.2894 232.169 68.5533 232.169 67.7119C232.169 66.8706 232.379 66.1795 232.8 65.6386C233.221 65.0677 233.807 64.5569 234.558 64.1062C235.309 63.5954 236.271 63.1897 237.442 62.8893C238.614 62.5888 239.891 62.4386 241.274 62.4386C242.596 62.4386 243.767 62.5888 244.789 62.8893C245.811 63.1597 246.682 63.6555 247.403 64.3766C248.124 65.0677 248.59 65.9241 248.8 66.9457C249.011 67.9673 249.116 69.2143 249.116 70.6867V83.0363C249.116 83.7875 249.206 84.3283 249.386 84.6589C249.567 84.9593 249.852 85.1096 250.243 85.1096C250.543 85.1096 250.829 85.0344 251.099 84.8842C251.37 84.734 251.67 84.5236 252.001 84.2532L252.496 85.0194C251.835 85.5302 251.144 85.9359 250.423 86.2364C249.702 86.5368 248.831 86.6871 247.809 86.6871C246.757 86.6871 245.916 86.5368 245.285 86.2364C244.684 85.9359 244.233 85.5002 243.933 84.9293C243.662 84.3584 243.512 83.6823 243.482 82.9011C242.761 84.103 241.874 85.0344 240.823 85.6955C239.771 86.3565 238.509 86.6871 237.037 86.6871ZM239.741 84.1631C240.462 84.1631 241.123 83.9678 241.724 83.5771C242.355 83.1865 242.926 82.6006 243.437 81.8193V72.7149C243.136 73.1656 242.701 73.5712 242.13 73.9318C241.589 74.2924 241.003 74.653 240.372 75.0135C239.741 75.3741 239.14 75.7948 238.569 76.2755C238.028 76.7263 237.563 77.2972 237.172 77.9883C236.811 78.6493 236.631 79.5057 236.631 80.5573C236.631 81.7292 236.917 82.6306 237.488 83.2616C238.058 83.8626 238.81 84.1631 239.741 84.1631ZM262.31 55.6778V63.1146H268.08V64.0161H262.31V81.9546C262.31 83.0363 262.506 83.8025 262.896 84.2532C263.287 84.7039 263.843 84.9293 264.564 84.9293C265.255 84.9293 265.886 84.6739 266.457 84.1631C267.028 83.6222 267.539 82.7358 267.989 81.5038L268.801 81.8644C268.35 83.3368 267.644 84.5687 266.682 85.5603C265.751 86.5218 264.429 87.0026 262.716 87.0026C261.694 87.0026 260.823 86.8674 260.102 86.5969C259.411 86.3565 258.81 85.996 258.299 85.5152C257.638 84.8241 257.187 83.9978 256.947 83.0363C256.736 82.0747 256.631 80.7977 256.631 79.2052V64.0161H252.665V63.1146H256.631V56.8497C257.713 56.8196 258.72 56.7145 259.651 56.5342C260.583 56.3539 261.469 56.0684 262.31 55.6778ZM273.829 53.8299C274.52 53.8299 275.106 53.9801 275.587 54.2806C276.098 54.551 276.518 54.9116 276.849 55.3623C277.179 55.8431 277.405 56.399 277.525 57.03C277.675 57.661 277.75 58.2769 277.75 58.8779C277.75 60.3502 277.36 61.7174 276.578 62.9794C275.827 64.2414 274.655 65.248 273.063 65.9992L272.657 65.1879C273.528 64.7973 274.28 64.2264 274.911 63.4752C275.572 62.694 275.947 61.8827 276.037 61.0413C276.158 60.5005 276.158 59.9897 276.037 59.5089C275.437 60.1099 274.655 60.4103 273.694 60.4103C272.762 60.4103 271.981 60.1249 271.35 59.554C270.719 58.9831 270.404 58.1718 270.404 57.1201C270.404 56.1586 270.719 55.3773 271.35 54.7764C272.011 54.1454 272.837 53.8299 273.829 53.8299ZM288.986 62.4386C290.248 62.4386 291.329 62.6188 292.231 62.9794C293.132 63.34 293.793 63.6555 294.214 63.9259C295.236 64.6771 295.852 64.1963 296.062 62.4836H297.053C296.993 63.355 296.948 64.3917 296.918 65.5936C296.888 66.7654 296.873 68.3429 296.873 70.3261H295.882C295.731 69.2143 295.446 68.1326 295.025 67.0809C294.605 66.0293 293.989 65.1579 293.177 64.4668C292.366 63.7456 291.299 63.3851 289.977 63.3851C289.046 63.3851 288.265 63.6555 287.634 64.1963C287.033 64.7372 286.732 65.5034 286.732 66.495C286.732 67.3964 287.003 68.1927 287.543 68.8838C288.084 69.5448 288.775 70.1758 289.617 70.7768C290.488 71.3477 291.39 71.9787 292.321 72.6698C293.403 73.391 294.364 74.1271 295.206 74.8783C296.047 75.5995 296.723 76.4107 297.234 77.3122C297.745 78.1836 298 79.2202 298 80.4221C298 81.8043 297.609 82.9912 296.828 83.9828C296.077 84.9443 295.07 85.6955 293.808 86.2364C292.576 86.7472 291.209 87.0026 289.707 87.0026C288.896 87.0026 288.159 86.9275 287.498 86.7772C286.837 86.627 286.251 86.4317 285.741 86.1913C285.35 85.981 284.989 85.7856 284.659 85.6054C284.358 85.4251 284.043 85.2748 283.712 85.1546C283.412 85.0044 283.141 85.0645 282.901 85.3349C282.691 85.6054 282.525 86.0561 282.405 86.6871H281.414C281.474 85.7255 281.519 84.5537 281.549 83.1715C281.579 81.7893 281.594 79.9564 281.594 77.6728H282.586C282.796 79.3254 283.111 80.7827 283.532 82.0447C283.983 83.2767 284.629 84.2532 285.47 84.9744C286.311 85.6655 287.393 86.011 288.715 86.011C289.286 86.011 289.827 85.8908 290.338 85.6504C290.879 85.41 291.314 85.0344 291.645 84.5236C292.005 84.0128 292.186 83.3217 292.186 82.4503C292.186 81.1282 291.735 80.0315 290.834 79.1601C289.932 78.2887 288.805 77.3573 287.453 76.3657C286.432 75.6145 285.47 74.8783 284.569 74.1572C283.697 73.436 282.976 72.6247 282.405 71.7233C281.864 70.8219 281.594 69.7552 281.594 68.5232C281.594 67.1711 281.939 66.0593 282.631 65.1879C283.322 64.2865 284.223 63.6104 285.335 63.1597C286.477 62.6789 287.694 62.4386 288.986 62.4386ZM14.9638 113.52C15.8953 113.52 16.6615 113.715 17.2624 114.106C17.8934 114.496 18.3592 114.992 18.6596 115.593C18.9601 116.194 19.1104 116.825 19.1104 117.486C19.1104 118.478 18.8099 119.304 18.2089 119.965C17.638 120.626 16.8718 120.957 15.9103 120.957C15.0088 120.957 14.2727 120.716 13.7018 120.235C13.1309 119.755 12.8454 119.094 12.8454 118.252C12.8454 117.501 13.0257 116.87 13.3863 116.359C13.7769 115.848 14.2126 115.443 14.6933 115.142C14.3628 114.962 13.9872 114.902 13.5666 114.962C12.8454 115.022 12.1844 115.277 11.5834 115.728C10.9824 116.179 10.4716 116.735 10.051 117.396C9.6303 118.057 9.29977 118.763 9.05939 119.514C8.84906 120.265 8.74389 120.987 8.74389 121.678V132.81C8.74389 134.283 9.11949 135.274 9.87068 135.785C10.6219 136.266 11.7186 136.506 13.1609 136.506V137.453C12.4698 137.423 11.4632 137.393 10.1411 137.363C8.84906 137.302 7.49691 137.272 6.08467 137.272C4.91281 137.272 3.74094 137.302 2.56908 137.363C1.42727 137.393 0.570909 137.423 1.85815e-06 137.453V136.506C1.11177 136.506 1.89301 136.281 2.34372 135.83C2.82449 135.379 3.06487 134.523 3.06487 133.261V119.064C3.06487 117.711 2.83951 116.72 2.3888 116.089C1.96813 115.428 1.17186 115.097 1.85815e-06 115.097V114.151C0.961529 114.241 1.89301 114.286 2.79444 114.286C3.90621 114.286 4.95788 114.241 5.94945 114.151C6.97108 114.031 7.90255 113.865 8.74389 113.655V118.342C9.10446 117.501 9.5702 116.72 10.1411 115.999C10.7421 115.277 11.4482 114.692 12.2595 114.241C13.1008 113.76 14.0022 113.52 14.9638 113.52ZM26.276 102.657C27.3578 102.657 28.2442 102.958 28.9353 103.559C29.6264 104.16 29.9719 104.956 29.9719 105.948C29.9719 106.939 29.6264 107.736 28.9353 108.336C28.2442 108.937 27.3578 109.238 26.276 109.238C25.1943 109.238 24.3079 108.937 23.6168 108.336C22.9257 107.736 22.5802 106.939 22.5802 105.948C22.5802 104.956 22.9257 104.16 23.6168 103.559C24.3079 102.958 25.1943 102.657 26.276 102.657ZM29.431 113.655V133.261C29.431 134.523 29.6564 135.379 30.1071 135.83C30.5879 136.281 31.3842 136.506 32.4959 136.506V137.453C31.9551 137.423 31.1287 137.393 30.017 137.363C28.9052 137.302 27.7784 137.272 26.6366 137.272C25.5248 137.272 24.3981 137.302 23.2562 137.363C22.1144 137.393 21.2581 137.423 20.6872 137.453V136.506C21.7989 136.506 22.5802 136.281 23.0309 135.83C23.5116 135.379 23.752 134.523 23.752 133.261V119.109C23.752 117.726 23.5267 116.72 23.076 116.089C22.6553 115.428 21.859 115.097 20.6872 115.097V114.151C21.6487 114.241 22.5802 114.286 23.4816 114.286C24.5934 114.286 25.645 114.241 26.6366 114.151C27.6582 114.031 28.5897 113.865 29.431 113.655ZM43.1156 145.926C41.3427 145.926 39.7352 145.761 38.2929 145.43C36.8506 145.1 35.7088 144.604 34.8675 143.943C34.0261 143.312 33.6055 142.501 33.6055 141.509C33.6055 140.548 34.0261 139.691 34.8675 138.94C35.7088 138.189 36.9408 137.618 38.5633 137.227L38.8788 137.948C38.3079 138.279 37.8722 138.73 37.5718 139.301C37.2713 139.872 37.121 140.473 37.121 141.104C37.121 142.396 37.707 143.387 38.8788 144.078C40.0807 144.799 41.6733 145.16 43.6564 145.16C45.0086 145.16 46.2555 144.98 47.3974 144.619C48.5392 144.259 49.4556 143.703 50.1467 142.951C50.8378 142.2 51.1834 141.269 51.1834 140.157C51.1834 139.226 50.8378 138.444 50.1467 137.813C49.4857 137.182 48.1486 136.867 46.1354 136.867H43.1606C42.0489 136.867 41.0272 136.747 40.0958 136.506C39.1943 136.266 38.4732 135.875 37.9323 135.334C37.3915 134.793 37.121 134.042 37.121 133.081C37.121 131.909 37.6018 130.857 38.5633 129.926C39.5249 128.964 41.0272 128.033 43.0705 127.131L43.5663 127.537C42.8151 127.928 42.139 128.348 41.5381 128.799C40.9671 129.25 40.6817 129.821 40.6817 130.512C40.6817 131.473 41.3427 131.954 42.6648 131.954H47.7579C49.3204 131.954 50.7026 132.149 51.9045 132.54C53.1365 132.931 54.113 133.547 54.8342 134.388C55.5553 135.229 55.9159 136.341 55.9159 137.723C55.9159 139.165 55.4502 140.503 54.5187 141.735C53.5872 142.997 52.175 144.003 50.2819 144.754C48.419 145.536 46.0302 145.926 43.1156 145.926ZM43.5212 127.852C41.8986 127.852 40.4263 127.612 39.1042 127.131C37.8121 126.621 36.7905 125.839 36.0393 124.788C35.2881 123.706 34.9125 122.339 34.9125 120.686C34.9125 119.033 35.2881 117.681 36.0393 116.63C36.7905 115.578 37.8121 114.797 39.1042 114.286C40.4263 113.775 41.8986 113.52 43.5212 113.52C45.1738 113.52 46.6462 113.775 47.9382 114.286C49.2303 114.797 50.2519 115.578 51.0031 116.63C51.7543 117.681 52.1299 119.033 52.1299 120.686C52.1299 122.339 51.7543 123.706 51.0031 124.788C50.2519 125.839 49.2303 126.621 47.9382 127.131C46.6462 127.612 45.1738 127.852 43.5212 127.852ZM43.5212 127.041C44.4226 127.041 45.1288 126.59 45.6396 125.689C46.1804 124.758 46.4509 123.09 46.4509 120.686C46.4509 118.282 46.1804 116.63 45.6396 115.728C45.1288 114.797 44.4226 114.331 43.5212 114.331C42.6198 114.331 41.8986 114.797 41.3578 115.728C40.847 116.63 40.5916 118.282 40.5916 120.686C40.5916 123.09 40.847 124.758 41.3578 125.689C41.8986 126.59 42.6198 127.041 43.5212 127.041ZM50.327 117.351L49.4707 117.035C49.9214 115.924 50.6575 114.992 51.6792 114.241C52.7008 113.46 53.7825 113.069 54.9243 113.069C55.7957 113.069 56.4718 113.309 56.9525 113.79C57.4634 114.271 57.7188 114.947 57.7188 115.818C57.7188 116.72 57.4784 117.381 56.9976 117.801C56.5168 118.222 55.991 118.432 55.4201 118.432C54.9093 118.432 54.4436 118.267 54.0229 117.937C53.6022 117.576 53.3618 117.035 53.3017 116.314C53.2416 115.563 53.482 114.631 54.0229 113.52L54.4736 113.7C53.3017 114.151 52.4304 114.646 51.8594 115.187C51.2885 115.728 50.7777 116.449 50.327 117.351ZM67.5408 102.162V118.117C68.292 116.434 69.3287 115.247 70.6508 114.556C72.0029 113.865 73.4602 113.52 75.0227 113.52C76.2547 113.52 77.2613 113.685 78.0425 114.015C78.8238 114.346 79.4548 114.767 79.9355 115.277C80.4463 115.848 80.8069 116.585 81.0172 117.486C81.2576 118.387 81.3778 119.604 81.3778 121.137V133.261C81.3778 134.523 81.6032 135.379 82.0539 135.83C82.5347 136.281 83.3309 136.506 84.4427 136.506V137.453C83.9018 137.423 83.0755 137.393 81.9638 137.363C80.852 137.302 79.7552 137.272 78.6735 137.272C77.5918 137.272 76.5251 137.302 75.4734 137.363C74.4218 137.393 73.6255 137.423 73.0846 137.453V136.506C74.0462 136.506 74.7223 136.281 75.1129 135.83C75.5035 135.379 75.6988 134.523 75.6988 133.261V119.604C75.6988 118.793 75.6237 118.072 75.4734 117.441C75.3232 116.78 75.0227 116.269 74.572 115.908C74.1513 115.518 73.5053 115.323 72.6339 115.323C71.6724 115.323 70.801 115.593 70.0198 116.134C69.2686 116.645 68.6676 117.381 68.2169 118.342C67.7662 119.274 67.5408 120.341 67.5408 121.542V133.261C67.5408 134.523 67.7362 135.379 68.1268 135.83C68.5474 136.281 69.2235 136.506 70.155 136.506V137.453C69.6442 137.423 68.878 137.393 67.8563 137.363C66.8648 137.302 65.8281 137.272 64.7464 137.272C63.6647 137.272 62.5379 137.302 61.366 137.363C60.2242 137.393 59.3679 137.423 58.797 137.453V136.506C59.9087 136.506 60.69 136.281 61.1407 135.83C61.6214 135.379 61.8618 134.523 61.8618 133.261V107.57C61.8618 106.218 61.6365 105.227 61.1857 104.596C60.7651 103.934 59.9688 103.604 58.797 103.604V102.657C59.7585 102.748 60.69 102.793 61.5914 102.793C62.7332 102.793 63.7999 102.748 64.7915 102.657C65.783 102.537 66.6995 102.372 67.5408 102.162ZM94.7444 106.759V114.196H100.514V115.097H94.7444V133.036C94.7444 134.117 94.9397 134.884 95.3303 135.334C95.7209 135.785 96.2768 136.01 96.9979 136.01C97.689 136.01 98.32 135.755 98.891 135.244C99.4619 134.703 99.9727 133.817 100.423 132.585L101.235 132.946C100.784 134.418 100.078 135.65 99.1163 136.641C98.1848 137.603 96.8627 138.084 95.15 138.084C94.1284 138.084 93.257 137.948 92.5359 137.678C91.8448 137.438 91.2438 137.077 90.733 136.596C90.0719 135.905 89.6212 135.079 89.3808 134.117C89.1705 133.156 89.0653 131.879 89.0653 130.286V115.097H85.099V114.196H89.0653V107.931C90.1471 107.901 91.1537 107.796 92.0851 107.615C93.0166 107.435 93.903 107.15 94.7444 106.759ZM124.043 102.207C125.035 102.207 125.891 102.342 126.612 102.612C127.364 102.853 128.01 103.183 128.551 103.604C129.001 103.965 129.362 104.415 129.632 104.956C129.933 105.497 130.083 106.098 130.083 106.759C130.083 107.57 129.798 108.261 129.227 108.832C128.686 109.403 127.995 109.689 127.153 109.689C126.252 109.689 125.501 109.433 124.9 108.922C124.329 108.382 124.043 107.645 124.043 106.714C124.043 105.993 124.239 105.377 124.629 104.866C125.05 104.325 125.636 103.949 126.387 103.739C126.297 103.529 126.102 103.349 125.801 103.198C125.501 103.048 125.095 102.973 124.584 102.973C123.983 102.973 123.457 103.093 123.007 103.334C122.586 103.574 122.241 103.904 121.97 104.325C121.67 104.836 121.459 105.587 121.339 106.579C121.219 107.57 121.159 109.073 121.159 111.086V114.196H125.981V115.097H121.159V132.81C121.159 134.283 121.549 135.274 122.331 135.785C123.142 136.266 124.224 136.506 125.576 136.506V137.453C124.825 137.423 123.773 137.393 122.421 137.363C121.069 137.302 119.626 137.272 118.094 137.272C117.012 137.272 115.93 137.302 114.849 137.363C113.767 137.393 112.956 137.423 112.415 137.453V136.506C113.527 136.506 114.308 136.281 114.759 135.83C115.239 135.379 115.48 134.523 115.48 133.261V115.097H112.235V114.196H115.48C115.48 112.423 115.57 110.951 115.75 109.779C115.93 108.577 116.201 107.555 116.561 106.714C116.952 105.873 117.478 105.121 118.139 104.46C118.77 103.799 119.596 103.258 120.618 102.838C121.67 102.417 122.811 102.207 124.043 102.207ZM138.608 113.52C140.681 113.52 142.514 113.94 144.107 114.782C145.729 115.593 147.007 116.9 147.938 118.703C148.9 120.506 149.38 122.88 149.38 125.824C149.38 128.769 148.9 131.143 147.938 132.946C147.007 134.748 145.729 136.055 144.107 136.867C142.514 137.678 140.681 138.084 138.608 138.084C136.535 138.084 134.687 137.678 133.064 136.867C131.442 136.055 130.165 134.748 129.233 132.946C128.302 131.143 127.836 128.769 127.836 125.824C127.836 122.88 128.302 120.506 129.233 118.703C130.165 116.9 131.442 115.593 133.064 114.782C134.687 113.94 136.535 113.52 138.608 113.52ZM138.608 114.421C137.196 114.421 136.039 115.323 135.138 117.125C134.266 118.898 133.831 121.798 133.831 125.824C133.831 129.851 134.266 132.75 135.138 134.523C136.039 136.296 137.196 137.182 138.608 137.182C139.99 137.182 141.132 136.296 142.034 134.523C142.935 132.75 143.386 129.851 143.386 125.824C143.386 121.798 142.935 118.898 142.034 117.125C141.132 115.323 139.99 114.421 138.608 114.421ZM167.3 113.52C168.232 113.52 168.998 113.715 169.599 114.106C170.23 114.496 170.696 114.992 170.996 115.593C171.297 116.194 171.447 116.825 171.447 117.486C171.447 118.478 171.147 119.304 170.546 119.965C169.975 120.626 169.209 120.957 168.247 120.957C167.346 120.957 166.609 120.716 166.038 120.235C165.468 119.755 165.182 119.094 165.182 118.252C165.182 117.501 165.362 116.87 165.723 116.359C166.114 115.848 166.549 115.443 167.03 115.142C166.7 114.962 166.324 114.902 165.903 114.962C165.182 115.022 164.521 115.277 163.92 115.728C163.319 116.179 162.808 116.735 162.388 117.396C161.967 118.057 161.636 118.763 161.396 119.514C161.186 120.265 161.081 120.987 161.081 121.678V132.81C161.081 134.283 161.456 135.274 162.207 135.785C162.959 136.266 164.055 136.506 165.498 136.506V137.453C164.807 137.423 163.8 137.393 162.478 137.363C161.186 137.302 159.834 137.272 158.421 137.272C157.25 137.272 156.078 137.302 154.906 137.363C153.764 137.393 152.908 137.423 152.337 137.453V136.506C153.448 136.506 154.23 136.281 154.68 135.83C155.161 135.379 155.402 134.523 155.402 133.261V119.064C155.402 117.711 155.176 116.72 154.726 116.089C154.305 115.428 153.509 115.097 152.337 115.097V114.151C153.298 114.241 154.23 114.286 155.131 114.286C156.243 114.286 157.295 114.241 158.286 114.151C159.308 114.031 160.239 113.865 161.081 113.655V118.342C161.441 117.501 161.907 116.72 162.478 115.999C163.079 115.277 163.785 114.692 164.596 114.241C165.438 113.76 166.339 113.52 167.3 113.52Z" fill="#162694"/>
<path d="M203.197 114.151V115.097C202.626 115.217 202.085 115.533 201.575 116.044C201.094 116.555 200.628 117.456 200.177 118.748L193.507 137.047L192.11 139.165L182.825 117.621C182.254 116.479 181.713 115.773 181.202 115.503C180.691 115.232 180.271 115.097 179.94 115.097V114.151C180.812 114.241 181.713 114.316 182.645 114.376C183.606 114.406 184.568 114.421 185.529 114.421C186.641 114.421 187.708 114.391 188.729 114.331C189.781 114.271 190.757 114.211 191.659 114.151V115.097C190.968 115.097 190.352 115.142 189.811 115.232C189.27 115.323 188.909 115.578 188.729 115.999C188.579 116.389 188.699 117.08 189.09 118.072L194.724 131.819L194.363 131.999L198.329 121.272C198.84 119.86 199.051 118.718 198.96 117.847C198.87 116.975 198.54 116.314 197.969 115.863C197.398 115.413 196.617 115.157 195.625 115.097V114.151C196.106 114.181 196.587 114.211 197.067 114.241C197.548 114.271 198.014 114.301 198.465 114.331C198.915 114.331 199.351 114.331 199.772 114.331C200.403 114.331 201.019 114.316 201.62 114.286C202.251 114.256 202.777 114.211 203.197 114.151ZM193.507 137.047L191.794 141.599C191.524 142.35 191.223 142.981 190.893 143.492C190.592 144.033 190.247 144.469 189.856 144.799C189.405 145.19 188.849 145.475 188.188 145.656C187.557 145.836 186.851 145.926 186.07 145.926C185.379 145.926 184.703 145.806 184.042 145.566C183.411 145.325 182.87 144.965 182.419 144.484C181.999 144.003 181.788 143.372 181.788 142.591C181.788 141.75 182.074 141.073 182.645 140.563C183.215 140.052 183.997 139.796 184.988 139.796C185.86 139.796 186.566 140.007 187.107 140.427C187.678 140.878 187.963 141.539 187.963 142.411C187.963 142.981 187.798 143.492 187.467 143.943C187.137 144.394 186.671 144.739 186.07 144.98C186.22 145.01 186.355 145.025 186.476 145.025C186.626 145.055 186.746 145.07 186.836 145.07C187.708 145.07 188.489 144.784 189.18 144.213C189.871 143.643 190.427 142.741 190.848 141.509L192.47 137.047H193.507ZM215.591 113.52C217.664 113.52 219.497 113.94 221.09 114.782C222.712 115.593 223.989 116.9 224.921 118.703C225.882 120.506 226.363 122.88 226.363 125.824C226.363 128.769 225.882 131.143 224.921 132.946C223.989 134.748 222.712 136.055 221.09 136.867C219.497 137.678 217.664 138.084 215.591 138.084C213.518 138.084 211.67 137.678 210.047 136.867C208.424 136.055 207.147 134.748 206.216 132.946C205.284 131.143 204.819 128.769 204.819 125.824C204.819 122.88 205.284 120.506 206.216 118.703C207.147 116.9 208.424 115.593 210.047 114.782C211.67 113.94 213.518 113.52 215.591 113.52ZM215.591 114.421C214.179 114.421 213.022 115.323 212.12 117.125C211.249 118.898 210.813 121.798 210.813 125.824C210.813 129.851 211.249 132.75 212.12 134.523C213.022 136.296 214.179 137.182 215.591 137.182C216.973 137.182 218.115 136.296 219.016 134.523C219.918 132.75 220.368 129.851 220.368 125.824C220.368 121.798 219.918 118.898 219.016 117.125C218.115 115.323 216.973 114.421 215.591 114.421ZM251.089 113.655V132.585C251.089 133.937 251.314 134.944 251.765 135.605C252.216 136.236 253.012 136.551 254.154 136.551V137.498C253.222 137.408 252.291 137.363 251.359 137.363C250.248 137.363 249.181 137.408 248.159 137.498C247.168 137.588 246.251 137.753 245.41 137.994V133.486C244.659 135.139 243.622 136.326 242.3 137.047C241.008 137.738 239.611 138.084 238.108 138.084C236.936 138.084 235.945 137.918 235.134 137.588C234.352 137.287 233.721 136.867 233.241 136.326C232.73 135.755 232.369 135.004 232.159 134.072C231.949 133.141 231.843 131.939 231.843 130.467V119.064C231.843 117.711 231.618 116.72 231.167 116.089C230.747 115.428 229.95 115.097 228.778 115.097V114.151C229.74 114.241 230.671 114.286 231.573 114.286C232.685 114.286 233.736 114.241 234.728 114.151C235.75 114.031 236.681 113.865 237.522 113.655V132.044C237.522 132.855 237.582 133.577 237.703 134.208C237.853 134.839 238.138 135.349 238.559 135.74C238.98 136.101 239.611 136.281 240.452 136.281C241.384 136.281 242.225 136.01 242.976 135.47C243.727 134.929 244.313 134.193 244.734 133.261C245.185 132.33 245.41 131.278 245.41 130.106V119.064C245.41 117.711 245.185 116.72 244.734 116.089C244.313 115.428 243.517 115.097 242.345 115.097V114.151C243.307 114.241 244.238 114.286 245.139 114.286C246.251 114.286 247.303 114.241 248.294 114.151C249.316 114.031 250.248 113.865 251.089 113.655Z" fill="url(#paint0_linear_58_7489)"/>
<defs>
<linearGradient id="paint0_linear_58_7489" x1="178.113" y1="108.991" x2="245.726" y2="108.583" gradientUnits="userSpaceOnUse">
<stop stop-color="#172795"/>
<stop offset="0.293269" stop-color="#5744D0"/>
<stop offset="0.658654" stop-color="#BD6BEA"/>
<stop offset="1" stop-color="#FF9A2E"/>
</linearGradient>
</defs>
</svg>
