<svg width="46" height="55" viewBox="0 0 46 55" fill="none" xmlns="http://www.w3.org/2000/svg">
<path d="M40.778 16.3672C40.6201 12.0237 38.7239 7.93915 35.4389 4.8676C32.1544 1.79656 27.8356 0.0685126 23.2787 0.00209795C18.4751 -0.0688795 13.9403 1.66323 10.5184 4.87775C7.09595 8.09277 5.21094 12.3867 5.21094 16.9683C5.21094 20.4375 6.3016 23.773 8.36521 26.6146C10.7124 29.8469 11.9885 33.6834 12.076 37.7357C10.8957 38.3522 10.0932 39.548 10.0932 40.9193C10.0932 41.946 10.5444 42.8722 11.2654 43.5326C10.5444 44.1932 10.0932 45.1194 10.0932 46.1461C10.0932 48.0209 11.592 49.5679 13.5065 49.7545C13.2501 50.2425 13.1021 50.7908 13.1021 51.3728C13.1021 53.3728 14.8079 55 16.905 55H29.095C31.1919 55 32.898 53.3728 32.898 51.3728C32.898 50.7908 32.75 50.2425 32.4935 49.7545C34.4081 49.5679 35.9069 48.0209 35.9069 46.1461C35.9069 45.1194 35.4557 44.1932 34.7347 43.5326C35.4557 42.8722 35.9069 41.9457 35.9069 40.9193C35.9069 39.5467 35.103 38.3497 33.9212 37.734C33.9775 33.6771 35.2292 29.8745 37.5565 26.7218C39.7995 23.6827 40.9138 20.1022 40.778 16.3672ZM29.095 52.9721H16.905C15.9805 52.9721 15.2281 52.2547 15.2281 51.3728C15.2281 50.4909 15.9805 49.7733 16.905 49.7733H29.095C30.0196 49.7733 30.772 50.4909 30.772 51.3728C30.772 52.2547 30.0196 52.9721 29.095 52.9721ZM32.1039 47.7453H29.095H16.905H13.8961C12.9716 47.7453 12.2192 47.0277 12.2192 46.1458C12.2192 45.2639 12.9716 44.5463 13.8961 44.5463H32.1042C33.0288 44.5463 33.7811 45.2639 33.7811 46.1458C33.7811 47.0277 33.0285 47.7453 32.1039 47.7453ZM32.1039 42.5186H13.8959C12.9713 42.5186 12.2189 41.8012 12.2189 40.9193C12.2189 40.0374 12.9713 39.3198 13.8959 39.3198H32.1039C33.0285 39.3198 33.7809 40.0374 33.7809 40.9193C33.7809 41.8012 33.0285 42.5186 32.1039 42.5186ZM31.8012 37.2919H24.0629V26.8072L28.4112 24.1266C28.9042 23.8226 29.0456 23.195 28.727 22.7245C28.4083 22.2543 27.7503 22.1189 27.2571 22.4234L22.9999 25.048L19.0053 22.5854C18.5121 22.2812 17.8538 22.4163 17.5354 22.8865C17.2168 23.3567 17.3582 23.9846 17.8511 24.2886L21.9369 26.8072V37.2921H14.1927C14.0232 32.9884 12.621 28.9143 10.1126 25.4599C8.29664 22.9593 7.33672 20.0228 7.33672 16.9683C7.33672 12.9342 8.99638 9.15338 12.0098 6.32264C15.0227 3.49242 19.0128 1.9664 23.2457 2.02977C31.5966 2.15196 38.3644 8.48036 38.653 16.4372C38.7723 19.727 37.7919 22.8797 35.8176 25.554C33.3222 28.935 31.9405 32.9795 31.8012 37.2919Z" fill="black"/>
</svg>
