<svg width="44" height="52" viewBox="0 0 44 52" fill="none" xmlns="http://www.w3.org/2000/svg">
<path d="M10.0422 1.1065e-05C9.5816 0.00216914 9.21003 0.364751 9.20781 0.811526V3.10783H6.2128C3.66951 3.10783 1.6001 5.11712 1.6001 7.58398L1.60232 47.526C1.60232 49.9928 3.67168 52 6.21502 52H37.7874C40.3307 52 42.4001 49.9929 42.4001 47.526L42.3979 7.58398C42.3979 5.11717 40.3285 3.10783 37.7852 3.10783H34.7902L34.7924 0.811526C34.7902 0.364778 34.4186 0.00222107 33.958 1.1065e-05C33.7355 1.1065e-05 33.5219 0.0841792 33.3639 0.235255C33.2059 0.388486 33.1169 0.595674 33.1169 0.811515V3.10782H22.839V0.811515C22.8368 0.362607 22.463 0 22.0024 0C21.7798 0 21.5662 0.0841682 21.4082 0.235244C21.2502 0.388475 21.1612 0.595663 21.1612 0.811504V3.10781H10.8834V0.811504C10.8834 0.595685 10.7944 0.388497 10.6364 0.235244C10.4784 0.0841682 10.2647 1.1065e-05 10.0422 1.1065e-05ZM6.21274 4.72865H9.20775V7.02496C9.20997 7.47171 9.58157 7.83427 10.0421 7.83427C10.2647 7.83643 10.4783 7.7501 10.6363 7.59902C10.7943 7.44579 10.8833 7.24076 10.8833 7.02492V4.72861H21.1611V7.02492C21.1611 7.24074 21.2501 7.44577 21.4081 7.59902C21.5661 7.7501 21.7797 7.83643 22.0022 7.83427C22.4628 7.83427 22.8366 7.47169 22.8389 7.02496V4.72865H33.1167V7.02496C33.1167 7.24078 33.2058 7.44581 33.3637 7.59907C33.5217 7.75014 33.7353 7.83647 33.9579 7.83431C34.4185 7.83431 34.79 7.47173 34.7923 7.02501V4.7287H37.7873C39.4316 4.7287 40.7244 5.98907 40.7244 7.58403L40.7222 47.526C40.7222 49.121 39.4294 50.3749 37.785 50.3749H6.21494C4.57059 50.3749 3.27781 49.121 3.27781 47.526V7.58403C3.27781 5.98912 4.57059 4.7287 6.21494 4.7287L6.21274 4.72865ZM11.1859 15.9815V15.9793C10.7275 15.9815 10.3537 16.344 10.3515 16.7886C10.3537 17.2354 10.7253 17.5979 11.1859 17.6001H32.8142C33.2748 17.598 33.6464 17.2354 33.6486 16.7886C33.6464 16.344 33.2726 15.9815 32.8142 15.9793L11.1859 15.9815ZM11.1859 26.7425C10.7275 26.7447 10.3537 27.1051 10.3515 27.5518C10.3515 28.0008 10.7231 28.3655 11.1859 28.3677H32.8142C33.0345 28.3655 33.2481 28.2792 33.4039 28.1259C33.5619 27.9749 33.6487 27.7677 33.6487 27.5518C33.6465 27.1051 33.2726 26.7447 32.8143 26.7425H11.1859ZM11.1859 37.5036C10.9656 37.5036 10.752 37.5899 10.5962 37.7432C10.4382 37.8964 10.3515 38.1036 10.3515 38.3194C10.3537 38.764 10.7275 39.1266 11.1859 39.1287H32.8142C33.2726 39.1266 33.6464 38.764 33.6486 38.3194C33.6486 38.1036 33.5618 37.8964 33.4038 37.7432C33.2481 37.5899 33.0344 37.5036 32.8141 37.5036H11.1859Z" fill="black"/>
</svg>
