<svg width="50" height="61" viewBox="0 0 50 61" fill="none" xmlns="http://www.w3.org/2000/svg">
<path d="M40.5626 42.9526C40.5733 42.8661 40.5804 42.7779 40.5804 42.6878V20.0071C40.5804 18.8881 39.6642 17.9773 38.5385 17.9773H32.768C32.5177 17.9773 32.278 18.0232 32.0578 18.1044V11.5349C32.0578 10.4159 31.1416 9.50513 30.0159 9.50513H11.4613C10.3356 9.50513 9.41942 10.4159 9.41942 11.5349V42.6861C9.41942 42.7761 9.42653 42.8643 9.43718 42.9508L7.95459 42.9526V45.1589H42.0455V42.9526L40.5626 42.9526ZM34.5435 23.5813H36.763V29.2294H34.5435V23.5813ZM34.5435 33.4655H36.763V39.1137H34.5435V33.4655ZM23.8899 15.109H26.1094V20.0514H23.8899V15.109ZM23.8899 24.287H26.1094V29.2294H23.8899V24.287ZM16.0772 15.109H18.2966V20.0514H16.0772V15.109ZM16.0772 24.287H18.2966V29.2294H16.0772V24.287ZM15.8108 34.1713C15.8108 33.8059 16.1091 33.5094 16.4767 33.5094H25.7094C26.0769 33.5094 26.3752 33.806 26.3752 34.1713V42.9526H15.8107L15.8108 34.1713Z" fill="white"/>
</svg>
