<svg width="15" height="19" viewBox="0 0 15 19" fill="none" xmlns="http://www.w3.org/2000/svg">
<path fill-rule="evenodd" clip-rule="evenodd" d="M6.94086 5.2102H2.78373V14.0319H9.29847V7.77169H7.28286C7.09361 7.77169 6.93977 7.60402 6.93977 7.39896V5.20916L6.94086 5.2102ZM8.81422 7.02717H7.62604V5.73631L8.81422 7.02717ZM11.4664 5.4185V11.6787H9.98571V7.4014V7.39151V7.38161V7.37172V7.36182V7.35192V7.34203C9.98571 7.34203 9.98571 7.33653 9.98419 7.33213C9.98419 7.33213 9.98419 7.32664 9.98267 7.32389C9.98267 7.32389 9.98267 7.31839 9.98115 7.31564C9.98115 7.31564 9.97963 7.31014 9.97862 7.30739C9.97862 7.30739 9.9771 7.3019 9.97609 7.29915C9.97609 7.29915 9.97457 7.29365 9.97356 7.2909C9.97356 7.2909 9.97204 7.2854 9.97103 7.28265C9.97103 7.28265 9.96951 7.27716 9.9685 7.27441C9.9685 7.27441 9.96597 7.26891 9.96597 7.26616C9.96597 7.26616 9.96344 7.26066 9.96344 7.25791C9.96344 7.25791 9.96091 7.25242 9.95939 7.24967C9.95939 7.24967 9.95686 7.24417 9.95535 7.24142C9.95535 7.24142 9.95282 7.23592 9.9513 7.23317C9.9513 7.23317 9.94877 7.22768 9.94725 7.22493C9.94725 7.22493 9.94472 7.21943 9.9432 7.21668C9.9432 7.21668 9.94067 7.21118 9.93915 7.20953L9.93662 7.20514L9.93409 7.20239C9.93409 7.20239 9.93156 7.19689 9.93004 7.19524C9.93004 7.19524 9.92751 7.18974 9.92498 7.18809C9.92498 7.18809 9.92245 7.1837 9.91992 7.18095C9.91992 7.18095 9.91587 7.17655 9.91486 7.1738C9.91486 7.1738 9.91081 7.1694 9.9098 7.16665C9.9098 7.16665 9.90575 7.16225 9.90474 7.15951C9.90474 7.15951 9.90069 7.15511 9.89968 7.15236C9.89968 7.15236 9.89563 7.14796 9.89462 7.14521C9.89462 7.14521 9.89057 7.14081 9.88956 7.13806L9.88703 7.13532L7.53448 4.57946C7.52436 4.56681 7.51221 4.55691 7.49956 4.54592C7.49956 4.54592 7.49551 4.54152 7.4945 4.54042H7.49298L7.48792 4.53492H7.4864L7.48134 4.52943H7.47881L7.47375 4.52503H7.47122L7.46616 4.51953H7.46363C7.46363 4.51953 7.45958 4.51513 7.45857 4.51513H7.45705C7.45705 4.51513 7.453 4.51238 7.45047 4.51073H7.44896C7.44896 4.51073 7.44491 4.50799 7.44238 4.50634C7.39683 4.48105 7.34522 4.46675 7.29056 4.46675H4.95718V2.85808H9.11431V5.04787C9.11431 5.25348 9.26865 5.42061 9.4574 5.42061H11.473L11.4664 5.4185ZM9.79398 3.38324V4.67411H10.9822L9.79398 3.38324ZM9.45038 2.11107C9.50504 2.11107 9.55665 2.12536 9.6022 2.149C9.6022 2.149 9.60625 2.15175 9.60878 2.1534H9.6103C9.6103 2.1534 9.61434 2.15615 9.61687 2.1578H9.61839C9.61839 2.1578 9.62244 2.16055 9.62345 2.1622H9.62598L9.63104 2.1666H9.63357L9.63762 2.17209H9.64015C9.64015 2.17209 9.6442 2.17649 9.64521 2.17759H9.64673C9.64673 2.17759 9.65078 2.18199 9.65179 2.18309H9.65331C9.65331 2.18309 9.65736 2.18749 9.65837 2.18859C9.67001 2.19958 9.68165 2.21113 9.69329 2.22212L12.0458 4.77798L12.0484 4.78238C12.0484 4.78238 12.0524 4.78678 12.0534 4.78953C12.0534 4.78953 12.0575 4.79393 12.0585 4.79668C12.0585 4.79668 12.0625 4.80107 12.0636 4.80382C12.0636 4.80382 12.0676 4.80822 12.0686 4.81097C12.0686 4.81097 12.0727 4.81537 12.0737 4.81812C12.0737 4.81812 12.0777 4.82251 12.0787 4.82526C12.0787 4.82526 12.0828 4.82966 12.0838 4.83241C12.0838 4.83241 12.0863 4.83681 12.0889 4.83956C12.0889 4.83956 12.0914 4.84506 12.0929 4.8467L12.0954 4.84945L12.098 4.85385C12.098 4.85385 12.1005 4.85935 12.102 4.861C12.102 4.861 12.1045 4.8665 12.1061 4.86924C12.1061 4.86924 12.1086 4.87474 12.1101 4.87749C12.1101 4.87749 12.1126 4.88299 12.1142 4.88574C12.1142 4.88574 12.1167 4.89124 12.1182 4.89398C12.1182 4.89398 12.1207 4.89948 12.1223 4.90223C12.1223 4.90223 12.1248 4.90773 12.1248 4.91048C12.1248 4.91048 12.1273 4.91598 12.1273 4.91872C12.1273 4.91872 12.1288 4.92422 12.1298 4.92697C12.1298 4.92697 12.1314 4.93247 12.1324 4.93522C12.1324 4.93522 12.1339 4.94071 12.1349 4.94346C12.1349 4.94346 12.1364 4.94896 12.1374 4.95171C12.1374 4.95171 12.139 4.95721 12.14 4.95996C12.14 4.95996 12.14 4.96545 12.1415 4.9682C12.1415 4.9682 12.1415 4.9737 12.143 4.97645C12.143 4.97645 12.143 4.98195 12.1445 4.98635V4.99624V5.00614V5.01603V5.02593V5.03583V5.04572V12.0504C12.1445 12.256 11.9902 12.4231 11.8014 12.4231H9.97768V14.4045C9.97768 14.6101 9.82334 14.7772 9.63459 14.7772L2.44078 14.7794C2.25153 14.7794 2.09769 14.6118 2.09769 14.4067V4.83855C2.09769 4.63294 2.25203 4.46581 2.44078 4.46581H4.26453L4.26503 2.4839C4.26503 2.27829 4.41937 2.11116 4.60812 2.11116L9.45038 2.11107Z" fill="white"/>
</svg>
