<svg width="62" height="78" viewBox="0 0 62 78" fill="none" xmlns="http://www.w3.org/2000/svg">
<path d="M25.1393 65.9998C12.1046 65.9998 1.49951 55.3956 1.49951 42.3608C1.49951 29.326 12.1046 18.7202 25.1393 18.7202C38.1749 18.7202 48.7799 29.326 48.7799 42.3608C48.7799 55.3956 38.1749 65.9998 25.1393 65.9998Z" stroke="black" stroke-width="2" stroke-miterlimit="10" stroke-linecap="round" stroke-linejoin="round"/>
<path d="M25.1392 57.9764C16.5282 57.9764 9.52271 50.9716 9.52271 42.3607C9.52271 33.7497 16.5282 26.7434 25.1392 26.7434C33.7509 26.7434 40.7564 33.7497 40.7564 42.3607C40.7564 50.9716 33.7509 57.9764 25.1392 57.9764Z" stroke="black" stroke-width="2" stroke-miterlimit="10" stroke-linecap="round" stroke-linejoin="round"/>
<path d="M25.1394 49.9537C29.3333 49.9537 32.733 46.554 32.733 42.3602C32.733 38.1664 29.3333 34.7666 25.1394 34.7666C20.9456 34.7666 17.5459 38.1664 17.5459 42.3602C17.5459 46.554 20.9456 49.9537 25.1394 49.9537Z" stroke="black" stroke-width="2" stroke-miterlimit="10" stroke-linecap="round" stroke-linejoin="round"/>
<path d="M25.1394 42.3606L53.8608 13.6392" stroke="black" stroke-width="2" stroke-miterlimit="10" stroke-linecap="round" stroke-linejoin="round"/>
<path d="M53.8608 7V13.6396H60.5004L54.2866 19.8534H47.647V13.2138L53.8608 7Z" stroke="black" stroke-width="2" stroke-miterlimit="10" stroke-linecap="round" stroke-linejoin="round"/>
</svg>
