<svg width="70" height="85" viewBox="0 0 70 85" fill="none" xmlns="http://www.w3.org/2000/svg">
<path fill-rule="evenodd" clip-rule="evenodd" d="M36.094 14.3165C38.1647 14.8158 40.1135 15.6249 41.8859 16.6924L45.0329 14.3116C46.2659 13.3794 47.9811 13.4926 49.0798 14.5772L50.9168 16.3948C52.0156 17.4819 52.1274 19.1789 51.1853 20.3988L48.7816 23.5126C49.8604 25.2662 50.6782 27.1944 51.1828 29.2432L55.1054 29.7621C56.6441 29.9663 57.7752 31.2452 57.7752 32.7824V35.3526C57.7752 36.8873 56.6441 38.1687 55.1054 38.3728L54.5759 38.4417V38.0408C54.5759 35.082 50.9393 33.5769 48.8139 35.6797C48.18 36.3069 47.822 37.1529 47.822 38.0408V50.2273L47.4218 50.3257C46.6736 50.5101 45.9179 50.8299 45.2567 51.2258C44.6278 51.6021 43.9517 52.0891 43.6161 52.7507L41.886 51.4399C40.1136 52.5073 38.1647 53.3165 36.094 53.8157L35.5695 57.6968C35.3632 59.2192 34.0706 60.3383 32.517 60.3383H29.9193C28.3682 60.3383 27.0731 59.2192 26.8667 57.6968L26.3422 53.8132C24.2716 53.314 22.3227 52.5048 20.5528 51.4374L17.4058 53.8182C16.1728 54.7503 14.4576 54.6372 13.3589 53.5525L11.5219 51.735C10.4232 50.6479 10.3114 48.9508 11.2534 47.7309L13.6572 44.6172C12.5783 42.8636 11.7605 40.9353 11.2559 38.8866L7.33331 38.3676C5.79458 38.1635 4.66357 36.8845 4.66357 35.3473V32.7772C4.66357 31.2425 5.79458 29.9611 7.33331 29.7569L11.2559 29.238C11.7605 27.1892 12.5783 25.261 13.6572 23.5073L11.2534 20.3936C10.3113 19.1737 10.4257 17.4767 11.5219 16.3896L13.3589 14.572C14.4576 13.4849 16.1728 13.3743 17.4058 14.3064L20.5528 16.6871C22.3252 15.6197 24.2716 14.8105 26.3447 14.3113L26.8692 10.4277C27.0756 8.9053 28.3682 7.78625 29.9218 7.78625H32.5194C34.0706 7.78625 35.3657 8.9053 35.572 10.4277L36.094 14.3165ZM63.8681 64.3891C64.8997 62.9035 65.3372 61.9984 65.3372 59.7062V50.2322C65.3372 49.1574 64.0073 48.5818 63.2168 49.364C62.9906 49.5878 62.8514 49.8952 62.8514 50.2322V55.3602C62.8514 55.8127 62.4811 56.1767 62.0261 56.1767C61.5687 56.1767 61.2008 55.8103 61.2008 55.3602V49.2385C61.2008 48.1637 59.871 47.5882 59.0805 48.3703C58.8543 48.5941 58.7151 48.9015 58.7151 49.2385V53.7024C58.7151 54.155 58.3447 54.519 57.8898 54.519C57.4324 54.519 57.0645 54.1525 57.0645 53.7024V47.7456C57.0645 46.6708 55.7346 46.0952 54.9441 46.8774C54.7179 47.1012 54.5787 47.4086 54.5787 47.7456V51.7103C54.5787 52.1604 54.2083 52.5268 53.7534 52.5268C53.2985 52.5268 52.9281 52.1604 52.9281 51.7103L52.9231 38.0379C52.9231 36.5425 51.0787 35.7481 49.9799 36.8327C49.6667 37.1426 49.4728 37.5706 49.4728 38.0379V55.9678C49.4728 56.4204 49.1024 56.7844 48.6475 56.7844C48.1901 56.7844 47.8222 56.4179 47.8222 55.9678V51.9121C47.2555 52.0523 46.639 52.3106 46.112 52.6254C45.5079 52.9869 45.0555 53.3682 45.0555 53.6239V61.4131C45.0555 61.9295 45.1972 62.3353 45.5228 62.7387C47.2057 64.8318 48.9955 65.2351 49.2888 67.766H62.2993C62.3863 67.2568 62.5354 66.578 62.784 66.0247C63.0227 65.4885 63.535 64.8712 63.8681 64.3891ZM31.2195 18.7976C22.6954 18.7976 15.7876 25.6322 15.7876 34.0661C15.7876 42.5 22.6954 49.3346 31.2195 49.3346C39.7436 49.3346 46.6513 42.5 46.6513 34.0661C46.6513 25.6322 39.741 18.7976 31.2195 18.7976ZM22.1239 41.3213H32.7385C33.4693 43.0454 35.9501 43.0454 36.6809 41.3213H40.3176C40.775 41.3213 41.1429 40.9549 41.1429 40.5048C41.1429 40.0522 40.7725 39.6882 40.3176 39.6882H36.6809C35.9501 37.9641 33.4693 37.9641 32.7385 39.6882L22.1239 39.6857C21.6665 39.6857 21.2986 40.0522 21.2986 40.5023C21.2986 40.9548 21.6665 41.3213 22.1239 41.3213ZM34.7545 25.512C33.8795 25.512 33.1114 26.0358 32.7832 26.8081H22.1241C21.6667 26.8081 21.2988 27.1746 21.2988 27.6247C21.2988 28.0772 21.6692 28.4412 22.1241 28.4412H32.7832C33.514 30.1654 35.9949 30.1654 36.7257 28.4412H40.3151C40.7725 28.4412 41.1404 28.0748 41.1404 27.6247C41.1404 27.1721 40.7701 26.8081 40.3151 26.8081H36.7257C36.3975 26.0358 35.6295 25.512 34.7545 25.512ZM26.2876 31.9512C25.4126 31.9512 24.6446 32.475 24.3164 33.2473H22.1214C21.664 33.2473 21.2961 33.6138 21.2961 34.0639C21.2961 34.5164 21.6665 34.8805 22.1214 34.8805H24.3164C25.0472 36.6046 27.528 36.6046 28.2588 34.8805H40.3148C40.7721 34.8805 41.1401 34.514 41.1401 34.0639C41.1401 33.6114 40.7697 33.2473 40.3148 33.2473L28.2588 33.2498C27.9307 32.475 27.1626 31.9512 26.2876 31.9512Z" fill="#162694"/>
</svg>
