<svg width="88" height="110" viewBox="0 0 88 110" fill="none" xmlns="http://www.w3.org/2000/svg">
<path d="M35.4451 18.0589C36.4471 18.0589 37.4266 18.356 38.2598 18.9127C39.0929 19.4694 39.7423 20.2606 40.1257 21.1864C40.5092 22.1121 40.6095 23.1308 40.414 24.1135C40.2185 25.0963 39.736 25.999 39.0275 26.7076C38.319 27.4161 37.4162 27.8986 36.4335 28.0941C35.4507 28.2896 34.4321 28.1892 33.5063 27.8058C32.5806 27.4223 31.7893 26.773 31.2326 25.9398C30.6759 25.1067 30.3788 24.1272 30.3788 23.1251C30.3805 21.782 30.9148 20.4943 31.8645 19.5446C32.8143 18.5948 34.1019 18.0605 35.4451 18.0589ZM40.2914 32.0949C38.1357 33.2601 35.6327 33.6105 33.24 33.082C30.8473 32.5535 28.7247 31.1814 27.2604 29.2166C25.7961 27.2519 25.0879 24.8257 25.2653 22.3818C25.4428 19.9378 26.4939 17.6393 28.2266 15.9066C29.9593 14.174 32.2577 13.1228 34.7017 12.9454C37.1457 12.768 39.5718 13.4762 41.5366 14.9405C43.5013 16.4048 44.8734 18.5273 45.4019 20.9201C45.9304 23.3128 45.58 25.8158 44.4148 27.9714C45.3518 27.4888 46.4017 27.268 47.4538 27.3321C48.5058 27.3963 49.5211 27.7431 50.3925 28.336C50.6473 26.994 51.3625 25.7829 52.4148 24.9119C53.4672 24.0409 54.7905 23.5646 56.1565 23.5651H57.6902V21.6794C57.6876 21.0786 57.4741 20.4977 57.087 20.0382C56.6998 19.5787 56.1636 19.2697 55.572 19.1651L52.2405 18.5806C51.8494 17.1286 51.2705 15.734 50.5182 14.432L52.4605 11.66C52.7937 11.1701 52.9469 10.5799 52.8942 9.98978C52.8415 9.39966 52.5861 8.846 52.1714 8.42286L50.1725 6.39258C49.7458 5.96775 49.1832 5.7066 48.5834 5.65489C47.9835 5.60317 47.3845 5.76418 46.8914 6.10972L44.1194 8.052C42.8175 7.29959 41.4228 6.72059 39.9708 6.32972L39.3862 2.99829C39.2817 2.4066 38.9727 1.8704 38.5132 1.48326C38.0537 1.09612 37.4728 0.88262 36.872 0.880005H34.0434C33.4425 0.88262 32.8617 1.09612 32.4022 1.48326C31.9426 1.8704 31.6336 2.4066 31.5291 2.99829L30.9445 6.32972C29.4925 6.72052 28.0978 7.29953 26.7959 8.052L23.9988 6.10972C23.5079 5.77083 22.9142 5.61368 22.3199 5.66531C21.7256 5.71693 21.1679 5.97411 20.7428 6.39258L18.7125 8.42286C18.2861 8.84995 18.0239 9.41374 17.9722 10.015C17.9205 10.6164 18.0825 11.2166 18.4297 11.7103L20.372 14.4823C19.62 15.7844 19.041 17.179 18.6497 18.6309L15.3182 19.2154C14.7265 19.32 14.1904 19.629 13.8032 20.0885C13.4161 20.548 13.2026 21.1289 13.2 21.7297V24.5583C13.2026 25.1591 13.4161 25.74 13.8032 26.1995C14.1904 26.659 14.7265 26.968 15.3182 27.0726L18.6497 27.6571C19.0407 29.1091 19.6197 30.5038 20.372 31.8057L18.4297 34.5651C18.0825 35.0588 17.9205 35.6591 17.9722 36.2604C18.0239 36.8617 18.2861 37.4255 18.7125 37.8526L20.7428 39.8514C21.1691 40.2788 21.7325 40.5421 22.3338 40.595C22.9352 40.6479 23.5359 40.487 24.0302 40.1406L26.8022 38.1983C28.1043 38.9504 29.4989 39.5294 30.9508 39.9206L31.5354 43.252C31.6399 43.8437 31.9489 44.3799 32.4084 44.767C32.868 45.1542 33.4488 45.3677 34.0497 45.3703H35.9354V43.8366C35.9348 42.4706 36.4112 41.1472 37.2822 40.0949C38.1532 39.0426 39.3642 38.3273 40.7062 38.0726C40.1054 37.2058 39.7497 36.1929 39.6767 35.1408C39.6037 34.0886 39.816 33.0363 40.2914 32.0949ZM74.7999 43.8366V46.0617C74.7937 46.5323 74.6232 46.9859 74.3178 47.344C74.0125 47.7021 73.5916 47.9423 73.1279 48.0229L70.5005 48.4817C70.1959 49.6409 69.7394 50.7548 69.1428 51.7943L70.6765 53.9817C70.9501 54.3708 71.0774 54.844 71.036 55.3179C70.9946 55.7917 70.7871 56.2357 70.4502 56.5714L68.8725 58.1491C68.5368 58.4861 68.0928 58.6935 67.619 58.7349C67.1451 58.7763 66.6719 58.649 66.2828 58.3754L64.1142 56.8229C63.0884 57.4157 61.9896 57.8722 60.8457 58.1806L60.3428 60.808C60.2622 61.2717 60.0221 61.6926 59.664 61.9979C59.3058 62.3032 58.8522 62.4738 58.3817 62.48H56.1565C55.6805 62.4811 55.2195 62.3139 54.8548 62.0079C54.4902 61.702 54.2455 61.277 54.1639 60.808L53.7051 58.1806C52.5611 57.8722 51.4623 57.4157 50.4365 56.8229L48.2491 58.3566C47.86 58.6301 47.3868 58.7575 46.9129 58.7161C46.4391 58.6747 45.9951 58.4672 45.6594 58.1303L44.0817 56.5526C43.7448 56.2168 43.5373 55.7728 43.4959 55.299C43.4545 54.8252 43.5818 54.3519 43.8554 53.9629L45.3954 51.7943C44.8025 50.7685 44.346 49.6697 44.0377 48.5257L41.4102 48.0229C40.9413 47.9413 40.5163 47.6966 40.2103 47.332C39.9043 46.9673 39.7371 46.5063 39.7382 46.0303V43.8366C39.7371 43.3606 39.9043 42.8995 40.2103 42.5349C40.5163 42.1703 40.9413 41.9256 41.4102 41.844L44.0377 41.3851C44.3462 40.2412 44.8026 39.1424 45.3954 38.1166L43.8617 35.9354C43.5881 35.5463 43.4608 35.0731 43.5022 34.5993C43.5436 34.1254 43.751 33.6815 44.0879 33.3457L45.6657 31.768C46.0014 31.4311 46.4454 31.2236 46.9192 31.1822C47.3931 31.1408 47.8663 31.2681 48.2554 31.5417L50.4365 33.0754C51.4623 32.4824 52.5611 32.026 53.7051 31.7177L54.1639 29.0903C54.2455 28.6213 54.4902 28.1963 54.8548 27.8904C55.2195 27.5844 55.6805 27.4172 56.1565 27.4183H58.3817C58.8522 27.4245 59.3058 27.5951 59.664 27.9004C60.0221 28.2057 60.2622 28.6266 60.3428 29.0903L60.8017 31.7177C61.9608 32.0224 63.0747 32.4789 64.1142 33.0754L66.2954 31.5417C66.6845 31.2681 67.1577 31.1408 67.6315 31.1822C68.1054 31.2236 68.5493 31.4311 68.8851 31.768L70.4628 33.3457C70.7997 33.6815 71.0072 34.1254 71.0486 34.5993C71.09 35.0731 70.9627 35.5463 70.6891 35.9354L69.1428 38.1166C69.7357 39.1423 70.1922 40.2412 70.5005 41.3851L73.1279 41.844C73.5969 41.9256 74.0219 42.1703 74.3279 42.5349C74.6339 42.8995 74.8011 43.3606 74.7999 43.8366ZM63.2845 44.9491C63.2845 43.7594 62.9317 42.5964 62.2707 41.6072C61.6098 40.6179 60.6703 39.8469 59.5711 39.3916C58.4719 38.9363 57.2624 38.8172 56.0955 39.0493C54.9287 39.2814 53.8568 39.8543 53.0155 40.6956C52.1743 41.5369 51.6014 42.6087 51.3692 43.7756C51.1371 44.9425 51.2563 46.152 51.7116 47.2511C52.1669 48.3503 52.9379 49.2898 53.9271 49.9508C54.9163 50.6118 56.0794 50.9646 57.2691 50.9646C58.8645 50.9646 60.3945 50.3308 61.5226 49.2027C62.6508 48.0746 63.2845 46.5445 63.2845 44.9491Z" fill="#162694"/>
</svg>
