<svg width="44" height="55" viewBox="0 0 44 55" fill="none" xmlns="http://www.w3.org/2000/svg">
<path d="M17.7227 9.02986C18.2237 9.02986 18.7134 9.17842 19.13 9.45677C19.5466 9.73511 19.8713 10.1307 20.063 10.5936C20.2547 11.0565 20.3049 11.5658 20.2071 12.0572C20.1094 12.5486 19.8681 12.9999 19.5139 13.3542C19.1596 13.7085 18.7082 13.9497 18.2169 14.0475C17.7255 14.1452 17.2161 14.095 16.7533 13.9033C16.2904 13.7116 15.8948 13.3869 15.6164 12.9703C15.3381 12.5538 15.1895 12.064 15.1895 11.563C15.1904 10.8914 15.4575 10.2476 15.9324 9.77272C16.4073 9.29784 17.0511 9.03069 17.7227 9.02986ZM20.1458 16.0479C19.068 16.6305 17.8165 16.8057 16.6201 16.5414C15.4238 16.2772 14.3625 15.5911 13.6303 14.6087C12.8982 13.6264 12.5441 12.4133 12.6328 11.1913C12.7215 9.96932 13.2471 8.82009 14.1134 7.95375C14.9798 7.0874 16.129 6.56183 17.351 6.47313C18.573 6.38443 19.786 6.73852 20.7684 7.47067C21.7508 8.20282 22.4368 9.2641 22.7011 10.4605C22.9653 11.6568 22.7901 12.9083 22.2075 13.9861C22.676 13.7448 23.201 13.6344 23.727 13.6665C24.253 13.6986 24.7607 13.872 25.1964 14.1684C25.3238 13.4974 25.6814 12.8919 26.2075 12.4564C26.7337 12.0209 27.3954 11.7827 28.0784 11.783H28.8452V10.8401C28.8439 10.5397 28.7372 10.2493 28.5436 10.0195C28.35 9.78977 28.0819 9.63528 27.7861 9.583L26.1204 9.29071C25.9248 8.56475 25.6353 7.86743 25.2592 7.21643L26.2304 5.83043C26.397 5.58546 26.4736 5.29038 26.4472 4.99532C26.4209 4.70026 26.2932 4.42342 26.0858 4.21186L25.0864 3.19672C24.873 2.9843 24.5917 2.85373 24.2918 2.82787C23.9918 2.80201 23.6924 2.88252 23.4458 3.05529L22.0598 4.02643C21.4089 3.65022 20.7115 3.36072 19.9855 3.16529L19.6932 1.49957C19.641 1.20373 19.4865 0.935629 19.2567 0.742059C19.027 0.548489 18.7365 0.441737 18.4361 0.44043H17.0218C16.7214 0.441737 16.431 0.548489 16.2012 0.742059C15.9714 0.935629 15.8169 1.20373 15.7647 1.49957L15.4724 3.16529C14.7464 3.36069 14.049 3.65019 13.3981 4.02643L11.9995 3.05529C11.7541 2.88584 11.4572 2.80727 11.1601 2.83308C10.8629 2.85889 10.5841 2.98748 10.3715 3.19672L9.35638 4.21186C9.14317 4.4254 9.01209 4.7073 8.98623 5.00795C8.96036 5.3086 9.04135 5.60875 9.21495 5.85557L10.1861 7.24157C9.81012 7.89263 9.52063 8.58994 9.32495 9.31586L7.65924 9.60814C7.36339 9.66042 7.0953 9.81492 6.90173 10.0447C6.70816 10.2744 6.60141 10.5649 6.6001 10.8653V12.2796C6.60141 12.58 6.70816 12.8704 6.90173 13.1002C7.0953 13.3299 7.36339 13.4844 7.65924 13.5367L9.32495 13.829C9.52046 14.555 9.80996 15.2523 10.1861 15.9033L9.21495 17.283C9.04135 17.5298 8.96036 17.83 8.98623 18.1306C9.01209 18.4313 9.14317 18.7132 9.35638 18.9267L10.3715 19.9261C10.5847 20.1398 10.8664 20.2715 11.167 20.2979C11.4677 20.3244 11.7681 20.2439 12.0152 20.0707L13.4012 19.0996C14.0523 19.4756 14.7496 19.7651 15.4755 19.9607L15.7678 21.6264C15.8201 21.9223 15.9746 22.1904 16.2043 22.3839C16.4341 22.5775 16.7245 22.6843 17.025 22.6856H17.9678V21.9187C17.9675 21.2357 18.2057 20.574 18.6412 20.0479C19.0767 19.5217 19.6822 19.1641 20.3532 19.0367C20.0528 18.6033 19.875 18.0969 19.8385 17.5708C19.802 17.0448 19.9081 16.5186 20.1458 16.0479ZM37.4001 21.9187V23.0313C37.397 23.2666 37.3117 23.4934 37.159 23.6724C37.0064 23.8515 36.7959 23.9716 36.5641 24.0119L35.2504 24.2413C35.0981 24.8209 34.8698 25.3778 34.5715 25.8976L35.3384 26.9913C35.4752 27.1858 35.5388 27.4224 35.5181 27.6594C35.4974 27.8963 35.3937 28.1183 35.2252 28.2861L34.4364 29.075C34.2685 29.2435 34.0465 29.3472 33.8096 29.3679C33.5727 29.3886 33.3361 29.3249 33.1415 29.1881L32.0572 28.4119C31.5443 28.7083 30.9949 28.9365 30.423 29.0907L30.1715 30.4044C30.1312 30.6363 30.0112 30.8467 29.8321 30.9994C29.653 31.152 29.4262 31.2373 29.191 31.2404H28.0784C27.8404 31.241 27.6099 31.1574 27.4275 31.0044C27.2452 30.8514 27.1229 30.6389 27.0821 30.4044L26.8527 29.0907C26.2807 28.9365 25.7313 28.7083 25.2184 28.4119L24.1247 29.1787C23.9301 29.3155 23.6935 29.3792 23.4566 29.3585C23.2197 29.3378 22.9977 29.234 22.8298 29.0656L22.041 28.2767C21.8725 28.1088 21.7688 27.8868 21.7481 27.6499C21.7274 27.413 21.791 27.1764 21.9278 26.9819L22.6978 25.8976C22.4013 25.3847 22.1731 24.8353 22.019 24.2633L20.7052 24.0119C20.4708 23.9711 20.2583 23.8487 20.1053 23.6664C19.9523 23.4841 19.8687 23.2536 19.8692 23.0156V21.9187C19.8687 21.6807 19.9523 21.4502 20.1053 21.2679C20.2583 21.0856 20.4708 20.9632 20.7052 20.9224L22.019 20.693C22.1732 20.121 22.4014 19.5716 22.6978 19.0587L21.931 17.9681C21.7942 17.7736 21.7305 17.537 21.7512 17.3001C21.7719 17.0631 21.8756 16.8412 22.0441 16.6733L22.833 15.8844C23.0008 15.716 23.2228 15.6122 23.4597 15.5915C23.6967 15.5708 23.9333 15.6345 24.1278 15.7713L25.2184 16.5381C25.7313 16.2416 26.2807 16.0134 26.8527 15.8593L27.0821 14.5456C27.1229 14.3111 27.2452 14.0986 27.4275 13.9456C27.6099 13.7926 27.8404 13.709 28.0784 13.7096H29.191C29.4262 13.7127 29.653 13.798 29.8321 13.9506C30.0112 14.1033 30.1312 14.3137 30.1715 14.5456L30.401 15.8593C30.9805 16.0116 31.5375 16.2399 32.0572 16.5381L33.1478 15.7713C33.3424 15.6345 33.579 15.5708 33.8159 15.5915C34.0528 15.6122 34.2748 15.716 34.4427 15.8844L35.2315 16.6733C35.4 16.8412 35.5037 17.0631 35.5244 17.3001C35.5451 17.537 35.4815 17.7736 35.3447 17.9681L34.5715 19.0587C34.868 19.5716 35.0962 20.121 35.2504 20.693L36.5641 20.9224C36.7986 20.9632 37.0111 21.0856 37.1641 21.2679C37.317 21.4502 37.4007 21.6807 37.4001 21.9187ZM31.6424 22.475C31.6424 21.8801 31.466 21.2986 31.1355 20.804C30.805 20.3094 30.3353 19.9239 29.7857 19.6962C29.2361 19.4686 28.6313 19.409 28.0479 19.5251C27.4645 19.6411 26.9285 19.9276 26.5079 20.3482C26.0873 20.7689 25.8008 21.3048 25.6847 21.8882C25.5687 22.4717 25.6283 23.0764 25.8559 23.626C26.0835 24.1756 26.4691 24.6453 26.9637 24.9758C27.4583 25.3063 28.0398 25.4827 28.6347 25.4827C29.4324 25.4827 30.1974 25.1658 30.7614 24.6018C31.3255 24.0377 31.6424 23.2727 31.6424 22.475Z" fill="white"/>
</svg>
