<svg width="70" height="85" viewBox="0 0 70 85" fill="none" xmlns="http://www.w3.org/2000/svg">
<path fill-rule="evenodd" clip-rule="evenodd" d="M36.094 14.3164C38.1647 14.8157 40.1135 15.6248 41.8859 16.6922L45.0329 14.3115C46.2659 13.3793 47.9811 13.4925 49.0798 14.5771L50.9168 16.3947C52.0156 17.4818 52.1274 19.1788 51.1853 20.3987L48.7816 23.5124C49.8604 25.2661 50.6782 27.1943 51.1828 29.2431L55.1054 29.762C56.6441 29.9662 57.7752 31.2451 57.7752 32.7823V35.3524C57.7752 36.8872 56.6441 38.1686 55.1054 38.3727L54.5759 38.4416V38.0407C54.5759 35.0819 50.9393 33.5767 48.8139 35.6796C48.18 36.3067 47.822 37.1528 47.822 38.0407V50.2272L47.4218 50.3255C46.6736 50.51 45.9179 50.8297 45.2567 51.2257C44.6278 51.602 43.9517 52.089 43.6161 52.7506L41.886 51.4397C40.1136 52.5071 38.1647 53.3163 36.094 53.8156L35.5695 57.6967C35.3632 59.2191 34.0706 60.3382 32.517 60.3382H29.9193C28.3682 60.3382 27.0731 59.2191 26.8667 57.6967L26.3422 53.8131C24.2716 53.3138 22.3227 52.5047 20.5528 51.4373L17.4058 53.818C16.1728 54.7502 14.4576 54.6371 13.3589 53.5524L11.5219 51.7349C10.4232 50.6477 10.3114 48.9507 11.2534 47.7308L13.6572 44.6171C12.5783 42.8634 11.7605 40.9352 11.2559 38.8864L7.33331 38.3675C5.79458 38.1634 4.66357 36.8844 4.66357 35.3472V32.7771C4.66357 31.2424 5.79458 29.9609 7.33331 29.7568L11.2559 29.2379C11.7605 27.1891 12.5783 25.2609 13.6572 23.5072L11.2534 20.3935C10.3113 19.1736 10.4257 17.4766 11.5219 16.3894L13.3589 14.5719C14.4576 13.4848 16.1728 13.3741 17.4058 14.3063L20.5528 16.687C22.3252 15.6196 24.2716 14.8104 26.3447 14.3112L26.8692 10.4276C27.0756 8.90517 28.3682 7.78613 29.9218 7.78613H32.5194C34.0706 7.78613 35.3657 8.90517 35.572 10.4276L36.094 14.3164ZM63.8681 64.3889C64.8997 62.9034 65.3372 61.9983 65.3372 59.7061V50.232C65.3372 49.1573 64.0073 48.5817 63.2168 49.3638C62.9906 49.5877 62.8514 49.8951 62.8514 50.232V55.3601C62.8514 55.8126 62.4811 56.1766 62.0261 56.1766C61.5687 56.1766 61.2008 55.8102 61.2008 55.3601V49.2384C61.2008 48.1636 59.871 47.588 59.0805 48.3702C58.8543 48.594 58.7151 48.9014 58.7151 49.2384V53.7023C58.7151 54.1548 58.3447 54.5189 57.8898 54.5189C57.4324 54.5189 57.0645 54.1524 57.0645 53.7023V47.7454C57.0645 46.6707 55.7346 46.0951 54.9441 46.8772C54.7179 47.1011 54.5787 47.4085 54.5787 47.7454V51.7102C54.5787 52.1602 54.2083 52.5267 53.7534 52.5267C53.2985 52.5267 52.9281 52.1603 52.9281 51.7102L52.9231 38.0377C52.9231 36.5424 51.0787 35.748 49.9799 36.8326C49.6667 37.1425 49.4728 37.5704 49.4728 38.0377V55.9677C49.4728 56.4203 49.1024 56.7843 48.6475 56.7843C48.1901 56.7843 47.8222 56.4178 47.8222 55.9677V51.912C47.2555 52.0522 46.639 52.3104 46.112 52.6253C45.5079 52.9868 45.0555 53.368 45.0555 53.6238V61.4129C45.0555 61.9294 45.1972 62.3352 45.5228 62.7386C47.2057 64.8316 48.9955 65.235 49.2888 67.7658H62.2993C62.3863 67.2567 62.5354 66.5779 62.784 66.0245C63.0227 65.4884 63.535 64.871 63.8681 64.3889ZM31.2195 18.7975C22.6954 18.7975 15.7876 25.6321 15.7876 34.066C15.7876 42.4999 22.6954 49.3345 31.2195 49.3345C39.7436 49.3345 46.6513 42.4999 46.6513 34.066C46.6513 25.6321 39.741 18.7975 31.2195 18.7975ZM22.1239 41.3212H32.7385C33.4693 43.0453 35.9501 43.0453 36.6809 41.3212H40.3176C40.775 41.3212 41.1429 40.9547 41.1429 40.5046C41.1429 40.0521 40.7725 39.6881 40.3176 39.6881H36.6809C35.9501 37.964 33.4693 37.964 32.7385 39.6881L22.1239 39.6856C21.6665 39.6856 21.2986 40.0521 21.2986 40.5022C21.2986 40.9547 21.6665 41.3212 22.1239 41.3212ZM34.7545 25.5118C33.8795 25.5118 33.1114 26.0357 32.7832 26.808H22.1241C21.6667 26.808 21.2988 27.1744 21.2988 27.6246C21.2988 28.0771 21.6692 28.4411 22.1241 28.4411H32.7832C33.514 30.1652 35.9949 30.1652 36.7257 28.4411H40.3151C40.7725 28.4411 41.1404 28.0747 41.1404 27.6246C41.1404 27.172 40.7701 26.808 40.3151 26.808H36.7257C36.3975 26.0357 35.6295 25.5118 34.7545 25.5118ZM26.2876 31.9511C25.4126 31.9511 24.6446 32.4749 24.3164 33.2472H22.1214C21.664 33.2472 21.2961 33.6137 21.2961 34.0638C21.2961 34.5163 21.6665 34.8803 22.1214 34.8803H24.3164C25.0472 36.6045 27.528 36.6045 28.2588 34.8803H40.3148C40.7721 34.8803 41.1401 34.5139 41.1401 34.0638C41.1401 33.6112 40.7697 33.2472 40.3148 33.2472L28.2588 33.2497C27.9307 32.4749 27.1626 31.9511 26.2876 31.9511Z" fill="#162694"/>
</svg>
