<svg width="45" height="55" viewBox="0 0 45 55" fill="none" xmlns="http://www.w3.org/2000/svg">
<path fill-rule="evenodd" clip-rule="evenodd" d="M23.0407 8.30151C24.0646 8.54803 25.0282 8.94755 25.9045 9.47459L27.4606 8.29908C28.0702 7.83882 28.9183 7.89468 29.4616 8.43024L30.3699 9.32766C30.9131 9.86444 30.9684 10.7024 30.5026 11.3047L29.3141 12.8421C29.8475 13.708 30.2519 14.6601 30.5014 15.6717L32.4409 15.9279C33.2017 16.0287 33.761 16.6602 33.761 17.4192V18.6882C33.761 19.446 33.2017 20.0787 32.4409 20.1795L32.1791 20.2135V20.0155C32.1791 18.5546 30.381 17.8114 29.3301 18.8497C29.0166 19.1594 28.8396 19.5771 28.8396 20.0155V26.0327L28.6418 26.0813C28.2718 26.1723 27.8981 26.3302 27.5712 26.5257C27.2603 26.7115 26.9259 26.952 26.76 27.2787L25.9046 26.6314C25.0282 27.1584 24.0646 27.558 23.0407 27.8045L22.7814 29.7208C22.6794 30.4725 22.0403 31.0251 21.2721 31.0251H19.9877C19.2207 31.0251 18.5803 30.4725 18.4783 29.7208L18.219 27.8033C17.1952 27.5568 16.2315 27.1572 15.3564 26.6302L13.8004 27.8057C13.1907 28.266 12.3427 28.2101 11.7994 27.6746L10.8911 26.7771C10.3478 26.2404 10.2925 25.4024 10.7583 24.8001L11.9469 23.2627C11.4134 22.3968 11.0091 21.4447 10.7596 20.4331L8.82005 20.1769C8.05923 20.0761 7.5 19.4446 7.5 18.6856V17.4166C7.5 16.6588 8.05923 16.0261 8.82005 15.9253L10.7596 15.6691C11.0091 14.6575 11.4134 13.7054 11.9469 12.8395L10.7583 11.3021C10.2925 10.6998 10.3491 9.86186 10.8911 9.32509L11.7994 8.42766C12.3427 7.89089 13.1907 7.83627 13.8004 8.29651L15.3564 9.47202C16.2328 8.94498 17.1952 8.54543 18.2202 8.29893L18.4796 6.3814C18.5816 5.62968 19.2207 5.07715 19.9889 5.07715H21.2733C22.0403 5.07715 22.6806 5.62968 22.7826 6.3814L23.0407 8.30151ZM36.7736 33.0252C37.2837 32.2917 37.5 31.8448 37.5 30.713V26.0351C37.5 25.5044 36.8424 25.2202 36.4516 25.6064C36.3397 25.7169 36.2709 25.8687 36.2709 26.0351V28.5671C36.2709 28.7905 36.0878 28.9703 35.8628 28.9703C35.6367 28.9703 35.4548 28.7893 35.4548 28.5671V25.5445C35.4548 25.0138 34.7972 24.7296 34.4064 25.1158C34.2945 25.2263 34.2257 25.3781 34.2257 25.5445V27.7486C34.2257 27.972 34.0425 28.1518 33.8176 28.1518C33.5915 28.1518 33.4095 27.9708 33.4095 27.7486V24.8073C33.4095 24.2766 32.752 23.9925 32.3611 24.3786C32.2493 24.4892 32.1805 24.641 32.1805 24.8073V26.7649C32.1805 26.9872 31.9973 27.1681 31.7724 27.1681C31.5475 27.1681 31.3643 26.9872 31.3643 26.7649L31.3619 20.0141C31.3619 19.2757 30.4499 18.8835 29.9066 19.419C29.7517 19.572 29.6559 19.7833 29.6559 20.0141V28.8671C29.6559 29.0906 29.4727 29.2703 29.2478 29.2703C29.0217 29.2703 28.8397 29.0894 28.8397 28.8671V26.8646C28.5595 26.9338 28.2547 27.0613 27.9941 27.2168C27.6954 27.3953 27.4717 27.5835 27.4717 27.7098V31.5557C27.4717 31.8108 27.5418 32.0111 27.7028 32.2103C28.5349 33.2437 29.4198 33.4429 29.5649 34.6925H35.9979C36.0409 34.4412 36.1147 34.106 36.2376 33.8328C36.3556 33.568 36.6089 33.2632 36.7736 33.0252ZM20.6305 10.5141C16.4158 10.5141 13.0003 13.8887 13.0003 18.053C13.0003 22.2173 16.4158 25.5919 20.6305 25.5919C24.8452 25.5919 28.2608 22.2173 28.2608 18.053C28.2608 13.8887 24.844 10.5141 20.6305 10.5141ZM16.1332 21.6353H21.3816C21.7429 22.4866 22.9696 22.4866 23.3309 21.6353H25.1291C25.3552 21.6353 25.5372 21.4544 25.5372 21.2321C25.5372 21.0087 25.354 20.8289 25.1291 20.8289H23.3309C22.9696 19.9776 21.7429 19.9776 21.3816 20.8289L16.1332 20.8277C15.9071 20.8277 15.7252 21.0087 15.7252 21.2309C15.7252 21.4544 15.9071 21.6353 16.1332 21.6353ZM22.3784 13.8293C21.9458 13.8293 21.566 14.088 21.4037 14.4693H16.1333C15.9072 14.4693 15.7253 14.6503 15.7253 14.8725C15.7253 15.0959 15.9084 15.2757 16.1333 15.2757H21.4037C21.7651 16.127 22.9917 16.127 23.3531 15.2757H25.1279C25.354 15.2757 25.5359 15.0947 25.5359 14.8725C25.5359 14.6491 25.3528 14.4693 25.1279 14.4693H23.3531C23.1908 14.088 22.811 13.8293 22.3784 13.8293ZM18.192 17.0087C17.7593 17.0087 17.3796 17.2674 17.2173 17.6487H16.132C15.9059 17.6487 15.7239 17.8297 15.7239 18.0519C15.7239 18.2754 15.9071 18.4551 16.132 18.4551H17.2173C17.5786 19.3064 18.8053 19.3064 19.1666 18.4551H25.1277C25.3538 18.4551 25.5357 18.2742 25.5357 18.0519C25.5357 17.8285 25.3526 17.6487 25.1277 17.6487L19.1666 17.6499C19.0044 17.2674 18.6246 17.0087 18.192 17.0087Z" fill="white"/>
</svg>
