<svg width="299" height="142" viewBox="0 0 299 142" fill="none" xmlns="http://www.w3.org/2000/svg">
<path d="M9.97822 32.057V3.79283H-3.91884e-05V0.000194243H23.8394V3.79283H13.8612V32.057H9.97822ZM26.6155 32.057V0.000194243H30.4081V13.4099L29.9566 13.3196C30.2576 11.9952 30.7693 10.9116 31.4917 10.0688C32.2141 9.22594 33.1021 8.60889 34.1556 8.21759C35.2091 7.79618 36.368 7.58548 37.6322 7.58548C39.3479 7.58548 40.7927 7.97678 41.9666 8.75939C43.1706 9.5119 44.0737 10.5805 44.6757 11.9651C45.3078 13.3196 45.6238 14.8848 45.6238 16.6607V32.057H41.8312V17.7443C41.8312 15.4266 41.4098 13.7109 40.567 12.5972C39.7543 11.4835 38.5051 10.9266 36.8195 10.9266C34.8931 10.9266 33.3429 11.5136 32.169 12.6875C30.9951 13.8614 30.4081 15.5621 30.4081 17.7895V32.057H26.6155ZM61.6674 32.5988C59.4099 32.5988 57.4534 32.0871 55.7979 31.0637C54.1724 30.0403 52.9082 28.5955 52.0052 26.7293C51.1323 24.833 50.6958 22.6206 50.6958 20.0922C50.6958 17.5637 51.1323 15.3664 52.0052 13.5002C52.9082 11.634 54.1574 10.1892 55.7527 9.16574C57.3781 8.11223 59.2895 7.58548 61.4868 7.58548C63.5637 7.58548 65.3999 8.08213 66.9952 9.07544C68.5905 10.0387 69.8246 11.4534 70.6975 13.3196C71.6005 15.1858 72.052 17.4584 72.052 20.1373V21.2661H54.6691C54.8196 23.8246 55.4968 25.751 56.7009 27.0453C57.935 28.3397 59.5905 28.9868 61.6674 28.9868C63.2326 28.9868 64.5119 28.6256 65.5052 27.9032C66.5286 27.1507 67.236 26.1724 67.6273 24.9684L71.6908 25.2845C71.0587 27.4216 69.8547 29.1825 68.0788 30.5671C66.333 31.9216 64.1958 32.5988 61.6674 32.5988ZM54.6691 17.9249H67.8982C67.7176 15.6072 67.0403 13.9065 65.8664 12.8229C64.7226 11.7393 63.2627 11.1975 61.4868 11.1975C59.6507 11.1975 58.1306 11.7694 56.9266 12.9132C55.7527 14.0269 55.0002 15.6975 54.6691 17.9249ZM77.1893 32.057V8.12728H80.5304L80.711 14.1774L80.3498 14.042C80.6508 11.9952 81.298 10.5052 82.2913 9.5721C83.3147 8.60889 84.6692 8.12728 86.3549 8.12728H88.7027V11.7393H86.4C85.196 11.7393 84.1876 11.9651 83.3749 12.4166C82.5923 12.838 81.9903 13.4851 81.5689 14.3581C81.1776 15.2009 80.9819 16.2845 80.9819 17.6089V32.057H77.1893ZM101.835 32.5988C99.578 32.5988 97.6214 32.0871 95.9659 31.0637C94.3405 30.0403 93.0763 28.5955 92.1733 26.7293C91.3004 24.833 90.8639 22.6206 90.8639 20.0922C90.8639 17.5637 91.3004 15.3664 92.1733 13.5002C93.0763 11.634 94.3254 10.1892 95.9208 9.16574C97.5462 8.11223 99.4576 7.58548 101.655 7.58548C103.732 7.58548 105.568 8.08213 107.163 9.07544C108.759 10.0387 109.993 11.4534 110.866 13.3196C111.769 15.1858 112.22 17.4584 112.22 20.1373V21.2661H94.8372C94.9877 23.8246 95.6649 25.751 96.8689 27.0453C98.103 28.3397 99.7586 28.9868 101.835 28.9868C103.401 28.9868 104.68 28.6256 105.673 27.9032C106.697 27.1507 107.404 26.1724 107.795 24.9684L111.859 25.2845C111.227 27.4216 110.023 29.1825 108.247 30.5671C106.501 31.9216 104.364 32.5988 101.835 32.5988ZM94.8372 17.9249H108.066C107.886 15.6072 107.208 13.9065 106.034 12.8229C104.891 11.7393 103.431 11.1975 101.655 11.1975C99.8188 11.1975 98.2987 11.7694 97.0947 12.9132C95.9208 14.0269 95.1683 15.6975 94.8372 17.9249ZM116.353 12.1457L118.521 5.1022H116.218V0.000194243H121.32V4.47009L118.611 12.1457H116.353ZM135.684 32.5988C133.546 32.5988 131.725 32.2527 130.22 31.5604C128.745 30.8681 127.587 29.9199 126.744 28.7159C125.931 27.4818 125.464 26.0821 125.344 24.5169L129.317 24.246C129.558 25.6908 130.175 26.8497 131.168 27.7226C132.162 28.5654 133.667 28.9868 135.684 28.9868C137.309 28.9868 138.603 28.731 139.566 28.2193C140.56 27.6774 141.056 26.8196 141.056 25.6457C141.056 25.0136 140.906 24.4868 140.605 24.0654C140.304 23.644 139.717 23.2828 138.844 22.9818C137.971 22.6507 136.677 22.3346 134.961 22.0336C132.673 21.6122 130.867 21.1005 129.543 20.4985C128.249 19.8664 127.316 19.0989 126.744 18.1958C126.202 17.2627 125.931 16.1641 125.931 14.8999C125.931 12.7627 126.714 11.0169 128.279 9.6624C129.844 8.27778 132.071 7.58548 134.961 7.58548C136.918 7.58548 138.558 7.94668 139.883 8.66909C141.237 9.3614 142.291 10.2945 143.043 11.4684C143.826 12.6122 144.337 13.8764 144.578 15.2611L140.605 15.532C140.424 14.6892 140.093 13.9517 139.612 13.3196C139.13 12.6574 138.498 12.1457 137.715 11.7845C136.933 11.3932 136 11.1975 134.916 11.1975C133.2 11.1975 131.936 11.5286 131.123 12.1908C130.311 12.853 129.904 13.6958 129.904 14.7193C129.904 15.5019 130.085 16.149 130.446 16.6607C130.837 17.1423 131.454 17.5487 132.297 17.8798C133.14 18.1808 134.269 18.4517 135.684 18.6925C138.122 19.1139 140.018 19.6256 141.372 20.2276C142.727 20.8296 143.675 21.5671 144.217 22.44C144.759 23.3129 145.03 24.3815 145.03 25.6457C145.03 27.1206 144.608 28.3848 143.765 29.4383C142.953 30.4617 141.839 31.2443 140.424 31.7861C139.04 32.3279 137.459 32.5988 135.684 32.5988ZM168.391 32.5988C165.923 32.5988 163.951 32.0269 162.476 30.8831C161.032 29.7393 160.309 28.144 160.309 26.0972C160.309 24.0504 160.911 22.44 162.115 21.2661C163.319 20.0922 165.231 19.2644 167.849 18.7828L176.338 17.2025C176.338 15.1858 175.856 13.6808 174.893 12.6875C173.96 11.6942 172.545 11.1975 170.649 11.1975C168.993 11.1975 167.684 11.5738 166.721 12.3263C165.757 13.0487 165.095 14.1022 164.734 15.4868L160.716 15.1708C161.167 12.9132 162.251 11.0922 163.966 9.70755C165.712 8.29283 167.94 7.58548 170.649 7.58548C173.719 7.58548 176.067 8.45839 177.692 10.2042C179.318 11.9199 180.13 14.2979 180.13 17.338V27.2259C180.13 27.7677 180.221 28.1591 180.401 28.3999C180.612 28.6106 180.943 28.7159 181.395 28.7159H182.343V32.057C182.222 32.0871 182.027 32.1022 181.756 32.1022C181.485 32.1323 181.199 32.1473 180.898 32.1473C179.814 32.1473 178.926 31.9818 178.234 31.6507C177.572 31.2895 177.09 30.7477 176.789 30.0253C176.488 29.2728 176.338 28.2945 176.338 27.0905L176.789 27.1808C176.578 28.2042 176.067 29.1373 175.254 29.9801C174.441 30.7928 173.433 31.44 172.229 31.9216C171.025 32.3731 169.746 32.5988 168.391 32.5988ZM168.752 29.2577C170.348 29.2577 171.702 28.9567 172.816 28.3547C173.96 27.7226 174.833 26.8798 175.435 25.8263C176.037 24.7427 176.338 23.5387 176.338 22.2142V20.4985L168.572 21.9433C166.946 22.2443 165.818 22.7109 165.185 23.343C164.583 23.945 164.282 24.7427 164.282 25.736C164.282 26.8497 164.674 27.7226 165.456 28.3547C166.269 28.9567 167.368 29.2577 168.752 29.2577ZM186.626 32.057V8.12728H190.103L190.238 14.2226L189.787 13.8162C190.088 12.4015 190.615 11.2427 191.367 10.3397C192.12 9.40655 193.023 8.71424 194.076 8.26273C195.16 7.81123 196.319 7.58548 197.553 7.58548C199.389 7.58548 200.894 7.99183 202.068 8.80454C203.272 9.61725 204.16 10.7159 204.732 12.1005C205.334 13.455 205.635 14.9751 205.635 16.6607V32.057H201.842V17.7443C201.842 16.2694 201.661 15.0353 201.3 14.042C200.969 13.0186 200.427 12.251 199.675 11.7393C198.922 11.1975 197.944 10.9266 196.74 10.9266C194.904 10.9266 193.384 11.5136 192.18 12.6875C191.006 13.8313 190.419 15.5169 190.419 17.7443V32.057H186.626ZM3.612 83.2276V51.1707H7.49494V83.2276H3.612ZM15.6806 83.2276V59.2978H19.1572L19.2926 65.3932L18.8411 64.9868C19.1421 63.5721 19.6689 62.4132 20.4214 61.5102C21.1739 60.5771 22.0769 59.8848 23.1304 59.4333C24.214 58.9818 25.3729 58.756 26.607 58.756C28.4431 58.756 29.9481 59.1624 31.1221 59.9751C32.3261 60.7878 33.214 61.8865 33.7859 63.2711C34.3879 64.6256 34.6889 66.1457 34.6889 67.8313V83.2276H30.8963V68.9149C30.8963 67.44 30.7157 66.2059 30.3545 65.2126C30.0234 64.1891 29.4816 63.4216 28.7291 62.9099C27.9766 62.3681 26.9983 62.0972 25.7943 62.0972C23.9582 62.0972 22.4381 62.6841 21.2341 63.858C20.0602 65.0018 19.4732 66.6875 19.4732 68.9149V83.2276H15.6806ZM48.8669 83.2276C46.6997 83.2276 45.0893 82.7309 44.0358 81.7376C43.0124 80.7443 42.5007 79.1942 42.5007 77.0871V53.6992H46.2933V76.9968C46.2933 78.0804 46.5341 78.8329 47.0157 79.2544C47.4973 79.6758 48.2348 79.8865 49.2281 79.8865H52.6595V83.2276H48.8669ZM38.9789 62.639V59.2978H52.6595V62.639H38.9789ZM66.4294 83.7694C64.1719 83.7694 62.2153 83.2577 60.5598 82.2343C58.9344 81.2109 57.6702 79.7661 56.7672 77.8998C55.8943 76.0035 55.4578 73.7911 55.4578 71.2627C55.4578 68.7343 55.8943 66.537 56.7672 64.6707C57.6702 62.8045 58.9194 61.3597 60.5147 60.3363C62.1401 59.2828 64.0515 58.756 66.2488 58.756C68.3257 58.756 70.1618 59.2527 71.7571 60.246C73.3525 61.2092 74.5866 62.6239 75.4595 64.4901C76.3625 66.3564 76.814 68.6289 76.814 71.3079V72.4366H59.4311C59.5816 74.9952 60.2588 76.9216 61.4628 78.2159C62.6969 79.5102 64.3525 80.1574 66.4294 80.1574C67.9946 80.1574 69.2739 79.7962 70.2672 79.0738C71.2906 78.3212 71.9979 77.343 72.3892 76.139L76.4528 76.455C75.8207 78.5921 74.6167 80.353 72.8408 81.7376C71.0949 83.0921 68.9578 83.7694 66.4294 83.7694ZM59.4311 69.0955H72.6601C72.4795 66.7778 71.8023 65.0771 70.6284 63.9935C69.4846 62.9099 68.0247 62.3681 66.2488 62.3681C64.4127 62.3681 62.8926 62.94 61.6886 64.0838C60.5147 65.1975 59.7622 66.8681 59.4311 69.0955ZM86.8674 83.2276C85.4828 83.2276 84.354 82.8664 83.4811 82.144C82.6082 81.4216 82.1717 80.2778 82.1717 78.7125V51.1707H85.9644V78.3965C85.9644 78.8781 86.0848 79.2544 86.3256 79.5253C86.5965 79.7661 86.9727 79.8865 87.4543 79.8865H89.5313V83.2276H86.8674ZM94.398 83.2276V51.1707H104.331C109.268 51.1707 113.06 52.5704 115.709 55.3697C118.388 58.139 119.727 62.0972 119.727 67.2443C119.727 72.3614 118.418 76.3045 115.799 79.0738C113.181 81.843 109.448 83.2276 104.602 83.2276H94.398ZM98.2809 79.435H104.331C108.094 79.435 110.923 78.4266 112.819 76.4099C114.716 74.3631 115.664 71.3079 115.664 67.2443C115.664 63.1206 114.716 60.0503 112.819 58.0336C110.923 55.9868 108.094 54.9634 104.331 54.9634H98.2809V79.435ZM135.346 83.7694C133.148 83.7694 131.222 83.2577 129.566 82.2343C127.911 81.2109 126.632 79.7661 125.729 77.8998C124.826 76.0035 124.374 73.7911 124.374 71.2627C124.374 68.7042 124.826 66.4918 125.729 64.6256C126.632 62.7594 127.911 61.3146 129.566 60.2911C131.222 59.2677 133.148 58.756 135.346 58.756C137.543 58.756 139.454 59.2677 141.08 60.2911C142.735 61.3146 144.015 62.7594 144.918 64.6256C145.821 66.4918 146.272 68.7042 146.272 71.2627C146.272 73.7911 145.821 76.0035 144.918 77.8998C144.015 79.7661 142.735 81.2109 141.08 82.2343C139.454 83.2577 137.543 83.7694 135.346 83.7694ZM135.346 80.1574C137.543 80.1574 139.244 79.3748 140.448 77.8095C141.682 76.2142 142.299 74.0319 142.299 71.2627C142.299 68.4935 141.682 66.3263 140.448 64.761C139.244 63.1657 137.543 62.3681 135.346 62.3681C133.148 62.3681 131.433 63.1657 130.198 64.761C128.964 66.3263 128.347 68.4935 128.347 71.2627C128.347 74.0319 128.964 76.2142 130.198 77.8095C131.433 79.3748 133.148 80.1574 135.346 80.1574ZM160.787 83.7694C158.559 83.7694 156.618 83.2577 154.962 82.2343C153.337 81.2109 152.073 79.7661 151.17 77.8998C150.267 76.0035 149.815 73.7911 149.815 71.2627C149.815 68.7343 150.267 66.537 151.17 64.6707C152.073 62.8045 153.337 61.3597 154.962 60.3363C156.618 59.2828 158.559 58.756 160.787 58.756C162.623 58.756 164.248 59.0871 165.663 59.7493C167.108 60.3814 168.282 61.3146 169.185 62.5487C170.088 63.7828 170.675 65.2878 170.946 67.0637L166.972 67.3346C166.702 65.7393 166.009 64.5202 164.896 63.6774C163.782 62.8045 162.412 62.3681 160.787 62.3681C158.59 62.3681 156.874 63.1657 155.64 64.761C154.406 66.3263 153.789 68.4935 153.789 71.2627C153.789 74.0319 154.406 76.2142 155.64 77.8095C156.874 79.3748 158.59 80.1574 160.787 80.1574C162.412 80.1574 163.782 79.7059 164.896 78.8028C166.009 77.8998 166.702 76.5453 166.972 74.7393L170.946 75.0102C170.675 76.7861 170.088 78.3363 169.185 79.6607C168.282 80.955 167.108 81.9634 165.663 82.6858C164.248 83.4082 162.623 83.7694 160.787 83.7694ZM196.135 83.2276C193.968 83.2276 192.358 82.7309 191.304 81.7376C190.281 80.7443 189.769 79.1942 189.769 77.0871V53.6992H193.562V76.9968C193.562 78.0804 193.802 78.8329 194.284 79.2544C194.766 79.6758 195.503 79.8865 196.496 79.8865H199.928V83.2276H196.135ZM186.247 62.639V59.2978H199.928V62.639H186.247ZM204.792 83.2276V51.1707H208.585V64.5804L208.133 64.4901C208.434 63.1657 208.946 62.0821 209.669 61.2393C210.391 60.3965 211.279 59.7794 212.332 59.3881C213.386 58.9667 214.545 58.756 215.809 58.756C217.525 58.756 218.97 59.1473 220.144 59.9299C221.348 60.6825 222.251 61.751 222.853 63.1356C223.485 64.4901 223.801 66.0554 223.801 67.8313V83.2276H220.008V68.9149C220.008 66.5972 219.587 64.8814 218.744 63.7677C217.931 62.654 216.682 62.0972 214.996 62.0972C213.07 62.0972 211.52 62.6841 210.346 63.858C209.172 65.0319 208.585 66.7326 208.585 68.96V83.2276H204.792ZM237.043 83.7694C234.575 83.7694 232.603 83.1975 231.128 82.0537C229.683 80.9099 228.961 79.3146 228.961 77.2677C228.961 75.2209 229.563 73.6105 230.767 72.4366C231.971 71.2627 233.882 70.435 236.501 69.9534L244.989 68.3731C244.989 66.3564 244.508 64.8513 243.545 63.858C242.611 62.8647 241.197 62.3681 239.3 62.3681C237.645 62.3681 236.335 62.7443 235.372 63.4968C234.409 64.2192 233.747 65.2728 233.386 66.6574L229.367 66.3413C229.819 64.0838 230.902 62.2627 232.618 60.8781C234.364 59.4634 236.591 58.756 239.3 58.756C242.371 58.756 244.718 59.6289 246.344 61.3748C247.969 63.0905 248.782 65.4684 248.782 68.5085V78.3965C248.782 78.9383 248.872 79.3296 249.053 79.5704C249.264 79.7811 249.595 79.8865 250.046 79.8865H250.994V83.2276C250.874 83.2577 250.678 83.2727 250.407 83.2727C250.136 83.3028 249.851 83.3179 249.55 83.3179C248.466 83.3179 247.578 83.1523 246.886 82.8212C246.223 82.46 245.742 81.9182 245.441 81.1958C245.14 80.4433 244.989 79.4651 244.989 78.261L245.441 78.3513C245.23 79.3748 244.718 80.3079 243.906 81.1507C243.093 81.9634 242.085 82.6105 240.881 83.0921C239.677 83.5437 238.397 83.7694 237.043 83.7694ZM237.404 80.4283C238.999 80.4283 240.354 80.1273 241.468 79.5253C242.611 78.8931 243.484 78.0503 244.086 76.9968C244.688 75.9132 244.989 74.7092 244.989 73.3848V71.6691L237.223 73.1139C235.598 73.4149 234.469 73.8814 233.837 74.5136C233.235 75.1156 232.934 75.9132 232.934 76.9065C232.934 78.0202 233.325 78.8931 234.108 79.5253C234.921 80.1273 236.019 80.4283 237.404 80.4283ZM262.847 83.2276C260.679 83.2276 259.069 82.7309 258.016 81.7376C256.992 80.7443 256.48 79.1942 256.48 77.0871V53.6992H260.273V76.9968C260.273 78.0804 260.514 78.8329 260.996 79.2544C261.477 79.6758 262.215 79.8865 263.208 79.8865H266.639V83.2276H262.847ZM252.959 62.639V59.2978H266.639V62.639H252.959ZM270.324 63.3162L272.491 56.2728H270.188V51.1707H275.29V55.6406L272.581 63.3162H270.324ZM289.654 83.7694C287.517 83.7694 285.696 83.4232 284.191 82.7309C282.716 82.0386 281.557 81.0905 280.714 79.8865C279.901 78.6523 279.435 77.2527 279.314 75.6875L283.288 75.4166C283.528 76.8614 284.145 78.0202 285.139 78.8932C286.132 79.736 287.637 80.1574 289.654 80.1574C291.279 80.1574 292.573 79.9015 293.537 79.3898C294.53 78.848 295.027 77.9901 295.027 76.8162C295.027 76.1841 294.876 75.6574 294.575 75.236C294.274 74.8146 293.687 74.4534 292.814 74.1523C291.941 73.8212 290.647 73.5052 288.931 73.2042C286.644 72.7828 284.838 72.2711 283.513 71.6691C282.219 71.037 281.286 70.2694 280.714 69.3664C280.172 68.4333 279.901 67.3346 279.901 66.0704C279.901 63.9333 280.684 62.1875 282.249 60.833C283.814 59.4483 286.042 58.756 288.931 58.756C290.888 58.756 292.528 59.1172 293.853 59.8396C295.207 60.532 296.261 61.4651 297.013 62.639C297.796 63.7828 298.308 65.047 298.548 66.4316L294.575 66.7025C294.395 65.8597 294.063 65.1223 293.582 64.4901C293.1 63.8279 292.468 63.3162 291.686 62.955C290.903 62.5637 289.97 62.3681 288.886 62.3681C287.17 62.3681 285.906 62.6992 285.094 63.3614C284.281 64.0236 283.874 64.8664 283.874 65.8898C283.874 66.6724 284.055 67.3196 284.416 67.8313C284.808 68.3129 285.425 68.7192 286.267 69.0503C287.11 69.3513 288.239 69.6222 289.654 69.8631C292.092 70.2845 293.988 70.7962 295.343 71.3982C296.697 72.0002 297.645 72.7376 298.187 73.6105C298.729 74.4835 299 75.552 299 76.8162C299 78.2911 298.578 79.5554 297.736 80.6089C296.923 81.6323 295.809 82.4149 294.395 82.9567C293.01 83.4985 291.43 83.7694 289.654 83.7694ZM3.07019 134.398V110.468H6.41133L6.59193 116.519L6.23073 116.383C6.53173 114.336 7.17889 112.846 8.1722 111.913C9.19561 110.95 10.5501 110.468 12.2357 110.468H14.5836V114.08H12.2809C11.0769 114.08 10.0685 114.306 9.25581 114.758C8.4732 115.179 7.8712 115.826 7.44979 116.699C7.05849 117.542 6.86284 118.626 6.86284 119.95V134.398H3.07019ZM18.8111 134.398V110.468H22.6038V134.398H18.8111ZM18.7208 106.721V102.296H22.6941V106.721H18.7208ZM38.4685 141.713C36.7528 141.713 35.2026 141.427 33.818 140.855C32.4334 140.283 31.2746 139.47 30.3414 138.417C29.4083 137.363 28.7762 136.144 28.4451 134.759L32.4184 134.488C32.7796 135.602 33.4117 136.475 34.3147 137.107C35.2478 137.769 36.6324 138.1 38.4685 138.1C40.6358 138.1 42.2913 137.664 43.4351 136.791C44.609 135.918 45.196 134.609 45.196 132.863V128.98C44.624 130.244 43.706 131.253 42.4418 132.005C41.1776 132.758 39.7628 133.134 38.1976 133.134C36.1809 133.134 34.3749 132.637 32.7796 131.644C31.2144 130.651 29.9802 129.281 29.0772 127.535C28.2043 125.789 27.7679 123.788 27.7679 121.53C27.7679 119.243 28.2043 117.241 29.0772 115.525C29.9501 113.779 31.1542 112.41 32.6893 111.417C34.2545 110.423 36.0304 109.927 38.017 109.927C39.7026 109.927 41.2077 110.318 42.5321 111.1C43.8866 111.883 44.8347 112.937 45.3766 114.261V110.468H48.9886V132.773C48.9886 134.639 48.5672 136.234 47.7244 137.559C46.8816 138.913 45.6776 139.937 44.1123 140.629C42.5471 141.351 40.6659 141.713 38.4685 141.713ZM38.3782 129.522C40.4251 129.522 42.0655 128.815 43.2996 127.4C44.5337 125.955 45.1659 123.998 45.196 121.53C45.2261 119.875 44.9552 118.46 44.3832 117.286C43.8414 116.082 43.0438 115.164 41.9903 114.532C40.9669 113.87 39.7628 113.539 38.3782 113.539C36.2712 113.539 34.6307 114.261 33.4568 115.706C32.313 117.121 31.7411 119.062 31.7411 121.53C31.7411 123.998 32.3281 125.955 33.502 127.4C34.706 128.815 36.3314 129.522 38.3782 129.522ZM55.54 134.398V102.341H59.3326V115.751L58.8811 115.661C59.1821 114.336 59.6938 113.253 60.4163 112.41C61.1387 111.567 62.0266 110.95 63.0801 110.559C64.1336 110.137 65.2925 109.927 66.5567 109.927C68.2724 109.927 69.7173 110.318 70.8912 111.1C72.0952 111.853 72.9982 112.922 73.6002 114.306C74.2323 115.661 74.5484 117.226 74.5484 119.002V134.398H70.7557V120.085C70.7557 117.768 70.3343 116.052 69.4915 114.938C68.6788 113.825 67.4296 113.268 65.744 113.268C63.8176 113.268 62.2674 113.855 61.0935 115.029C59.9196 116.203 59.3326 117.903 59.3326 120.131V134.398H55.54ZM88.7263 134.398C86.5591 134.398 84.9487 133.901 83.8952 132.908C82.8718 131.915 82.3601 130.365 82.3601 128.258V104.87H86.1527V128.167C86.1527 129.251 86.3935 130.004 86.8751 130.425C87.3568 130.846 88.0942 131.057 89.0875 131.057H92.519V134.398H88.7263ZM78.8384 113.81V110.468H92.519V113.81H78.8384ZM111.284 134.398V108.301C111.284 106.525 111.795 105.095 112.819 104.012C113.842 102.898 115.437 102.341 117.605 102.341H121.397V105.682H117.876C116.942 105.682 116.235 105.938 115.753 106.45C115.302 106.962 115.076 107.669 115.076 108.572V134.398H111.284ZM108.033 113.81V110.468H121.081V113.81H108.033ZM134.111 134.94C131.914 134.94 129.987 134.428 128.332 133.405C126.676 132.381 125.397 130.937 124.494 129.07C123.591 127.174 123.139 124.962 123.139 122.433C123.139 119.875 123.591 117.662 124.494 115.796C125.397 113.93 126.676 112.485 128.332 111.462C129.987 110.438 131.914 109.927 134.111 109.927C136.308 109.927 138.22 110.438 139.845 111.462C141.501 112.485 142.78 113.93 143.683 115.796C144.586 117.662 145.037 119.875 145.037 122.433C145.037 124.962 144.586 127.174 143.683 129.07C142.78 130.937 141.501 132.381 139.845 133.405C138.22 134.428 136.308 134.94 134.111 134.94ZM134.111 131.328C136.308 131.328 138.009 130.545 139.213 128.98C140.447 127.385 141.064 125.203 141.064 122.433C141.064 119.664 140.447 117.497 139.213 115.932C138.009 114.336 136.308 113.539 134.111 113.539C131.914 113.539 130.198 114.336 128.964 115.932C127.73 117.497 127.113 119.664 127.113 122.433C127.113 125.203 127.73 127.385 128.964 128.98C130.198 130.545 131.914 131.328 134.111 131.328ZM150.206 134.398V110.468H153.547L153.728 116.519L153.367 116.383C153.668 114.336 154.315 112.846 155.308 111.913C156.332 110.95 157.686 110.468 159.372 110.468H161.719V114.08H159.417C158.213 114.08 157.204 114.306 156.392 114.758C155.609 115.179 155.007 115.826 154.586 116.699C154.194 117.542 153.999 118.626 153.999 119.95V134.398H150.206Z" fill="black"/>
<path d="M179.422 141.171V137.243H182.356C183.169 137.243 183.771 137.122 184.162 136.881C184.554 136.641 184.855 136.234 185.065 135.662L185.833 133.676H184.343L175.674 110.378H180.731L187.323 129.251L193.599 110.378H198.701L189.129 137.197C188.647 138.582 187.925 139.59 186.962 140.223C186.029 140.855 184.719 141.171 183.034 141.171H179.422ZM211.677 134.94C209.389 134.94 207.387 134.428 205.672 133.405C203.956 132.381 202.632 130.922 201.698 129.025C200.765 127.129 200.299 124.917 200.299 122.388C200.299 119.83 200.765 117.617 201.698 115.751C202.632 113.885 203.956 112.44 205.672 111.417C207.387 110.363 209.389 109.836 211.677 109.836C213.964 109.836 215.966 110.363 217.682 111.417C219.397 112.44 220.722 113.885 221.655 115.751C222.588 117.617 223.055 119.83 223.055 122.388C223.055 124.917 222.588 127.129 221.655 129.025C220.722 130.922 219.397 132.381 217.682 133.405C215.966 134.428 213.964 134.94 211.677 134.94ZM211.677 130.786C213.724 130.786 215.304 130.049 216.418 128.574C217.531 127.069 218.088 125.007 218.088 122.388C218.088 119.769 217.531 117.723 216.418 116.248C215.304 114.743 213.724 113.99 211.677 113.99C209.66 113.99 208.08 114.743 206.936 116.248C205.822 117.723 205.265 119.769 205.265 122.388C205.265 125.007 205.822 127.069 206.936 128.574C208.08 130.049 209.66 130.786 211.677 130.786ZM235.793 134.94C233.385 134.94 231.458 134.142 230.013 132.547C228.599 130.922 227.891 128.679 227.891 125.82V110.378H232.677V124.6C232.677 126.768 233.054 128.363 233.806 129.386C234.559 130.41 235.702 130.922 237.238 130.922C238.983 130.922 240.338 130.365 241.301 129.251C242.294 128.107 242.791 126.512 242.791 124.465V110.378H247.577V134.398H243.107L243.017 128.122L243.694 128.393C243.273 130.5 242.385 132.126 241.03 133.269C239.676 134.383 237.93 134.94 235.793 134.94Z" fill="url(#paint0_linear_36_4375)"/>
<defs>
<linearGradient id="paint0_linear_36_4375" x1="179.057" y1="108.896" x2="246.789" y2="108.488" gradientUnits="userSpaceOnUse">
<stop stop-color="#172795"/>
<stop offset="0.293269" stop-color="#5744D0"/>
<stop offset="0.658654" stop-color="#BD6BEA"/>
<stop offset="1" stop-color="#FF9A2E"/>
</linearGradient>
</defs>
</svg>
