<svg width="94" height="117" viewBox="0 0 94 117" fill="none" xmlns="http://www.w3.org/2000/svg">
<path d="M36.8789 37.175C36.8789 42.8353 41.4187 47.4398 47.0001 47.4398C52.5816 47.4398 57.1214 42.8356 57.1214 37.175C57.1214 31.5143 52.5816 26.9102 47.0001 26.9102C41.4187 26.9102 36.8789 31.5143 36.8789 37.175ZM47.0001 45.1577C44.6802 45.1577 42.5939 44.1252 41.1518 42.5002L44.3931 40.3065C45.9754 39.2367 48.0216 39.2367 49.6039 40.3065L52.8452 42.5002C51.4031 44.1286 49.3202 45.1577 46.9968 45.1577H47.0001ZM54.8713 37.175C54.8713 38.4039 54.5875 39.5617 54.0968 40.6044L50.8522 38.4107C48.5122 36.8263 45.488 36.8297 43.148 38.4107L39.9034 40.6044C39.4127 39.5651 39.1289 38.4038 39.1289 37.175C39.1289 32.7739 42.6606 29.1922 47.0001 29.1922C51.3395 29.1922 54.8713 32.7739 54.8713 37.175Z" fill="#162694"/>
<path d="M63.8663 75.948H48.1239V58.1744L51.1682 55.0869C51.6088 54.64 51.6088 53.9188 51.1682 53.4754C50.7276 53.0285 50.0166 53.0285 49.5793 53.4754L47.0023 56.0889L44.4253 53.4754C43.9847 53.0285 43.2737 53.0285 42.8364 53.4754C42.3958 53.9222 42.3958 54.6434 42.8364 55.0869L45.8807 58.1744V75.948H30.1383C29.5174 75.948 29.0134 75.4368 29.0134 74.8071V69.1061C29.0134 59.0449 37.0848 50.8619 47.0024 50.8619C51.8059 50.8619 56.3221 52.7611 59.724 56.2075C60.2314 56.722 60.6887 57.2501 61.1227 57.8189C61.4999 58.3166 62.2075 58.408 62.7016 58.0254C63.1923 57.6395 63.2824 56.9252 62.9052 56.4241C62.4112 55.7775 61.8904 55.1783 61.3129 54.5926C57.4908 50.7162 52.4103 48.5801 47.0027 48.5801C35.8432 48.5801 26.7637 57.7884 26.7637 69.1062V74.8072C26.7637 76.6929 28.2758 78.2299 30.1384 78.2299H63.8699C64.4908 78.2299 64.9948 77.7187 64.9948 77.089C64.9948 76.4593 64.4908 75.9481 63.8699 75.9481L63.8663 75.948Z" fill="#162694"/>
<path d="M80.7323 64.5425C78.873 64.5425 77.3576 66.076 77.3576 67.9651C77.3576 69.4513 78.2989 70.7039 79.6074 71.1745V81.649C79.6074 84.794 77.0839 87.35 73.9861 87.35C70.8851 87.35 68.3648 84.7907 68.3648 81.649V74.6446C70.3009 74.1334 71.7396 72.3662 71.7396 70.2436V59.9788C71.7396 59.3491 71.2356 58.8379 70.6147 58.8379H69.4898C68.8689 58.8379 68.3648 59.3491 68.3648 59.9788C68.3648 60.6085 68.8689 61.1197 69.4898 61.1197V70.243C69.4898 71.499 68.4817 72.5248 67.2399 72.5248C66.0015 72.5248 64.9901 71.5024 64.9901 70.243V61.1197C65.611 61.1197 66.115 60.6085 66.115 59.9788C66.115 59.3491 65.611 58.8379 64.9901 58.8379H63.8652C63.2443 58.8379 62.7402 59.3491 62.7402 59.9788V70.2436C62.7402 72.3628 64.1789 74.1334 66.115 74.6446V81.649C66.115 86.05 69.6467 89.6318 73.9861 89.6318C78.3256 89.6318 81.8573 86.05 81.8573 81.649V71.1745C83.1624 70.7039 84.1071 69.4479 84.1071 67.9651C84.1071 66.0794 82.595 64.5425 80.7323 64.5425ZM80.7323 69.106C80.1115 69.106 79.6074 68.5948 79.6074 67.9651C79.6074 67.3354 80.1115 66.8242 80.7323 66.8242C81.3532 66.8242 81.8573 67.3354 81.8573 67.9651C81.8573 68.5948 81.3532 69.106 80.7323 69.106Z" fill="#162694"/>
<path d="M34.6315 36.0349V26.9115C34.6315 23.4956 33.303 20.2997 30.8862 17.9198C28.4728 15.5398 25.2783 14.2805 21.9135 14.3718C15.4677 14.5546 10.0763 20.0187 9.89945 26.5563C9.80598 29.9756 11.0478 33.2087 13.3978 35.6563C15.7478 38.1073 18.8956 39.4547 22.2637 39.4547H31.2595C33.1188 39.4547 34.6343 37.9212 34.6343 36.0321L34.6315 36.0349ZM15.0069 34.068C13.0842 32.0672 12.0694 29.4198 12.1461 26.62C12.293 21.271 16.6992 16.8024 21.9734 16.6533C22.0702 16.6499 22.167 16.6499 22.2638 16.6499C24.9176 16.6499 27.4111 17.6757 29.3171 19.5547C31.2933 21.5047 32.3815 24.1182 32.3815 26.9112V36.0346C32.3815 36.6643 31.8774 37.1755 31.2565 37.1755H22.2607C19.5035 37.1755 16.9296 36.0721 15.0069 34.068Z" fill="#162694"/>
<path d="M16.6405 24.6328C16.0197 24.6328 15.5156 25.144 15.5156 25.7737V28.0555C15.5156 28.6851 16.0197 29.1963 16.6405 29.1963C17.2614 29.1963 17.7655 28.6851 17.7655 28.0555V25.7737C17.7655 25.144 17.2614 24.6328 16.6405 24.6328Z" fill="#162694"/>
<path d="M22.2616 24.6328C21.6408 24.6328 21.1367 25.144 21.1367 25.7737V28.0555C21.1367 28.6851 21.6408 29.1963 22.2616 29.1963C22.8825 29.1963 23.3866 28.6851 23.3866 28.0555V25.7737C23.3866 25.144 22.8825 24.6328 22.2616 24.6328Z" fill="#162694"/>
<path d="M27.8866 24.6328C27.2658 24.6328 26.7617 25.144 26.7617 25.7737V28.0555C26.7617 28.6851 27.2658 29.1963 27.8866 29.1963C28.5075 29.1963 29.0116 28.6851 29.0116 28.0555V25.7737C29.0116 25.144 28.5075 24.6328 27.8866 24.6328Z" fill="#162694"/>
<path d="M51.4959 61.1233C51.4959 60.4936 50.9919 59.9824 50.371 59.9824C49.7501 59.9824 49.2461 60.4936 49.2461 61.1233V62.2642C49.2461 62.8939 49.7501 63.4051 50.371 63.4051C50.9919 63.4051 51.4959 62.8939 51.4959 62.2642V61.1233Z" fill="#162694"/>
<path d="M51.4959 66.8245C51.4959 66.1948 50.9919 65.6836 50.371 65.6836C49.7501 65.6836 49.2461 66.1948 49.2461 66.8245V67.9654C49.2461 68.595 49.7501 69.1062 50.371 69.1062C50.9919 69.1062 51.4959 68.595 51.4959 67.9654V66.8245Z" fill="#162694"/>
<path d="M50.3749 71.3848C49.754 71.3848 49.25 71.896 49.25 72.5257V73.6665C49.25 74.2962 49.754 74.8074 50.3749 74.8074C50.9958 74.8074 51.4998 74.2962 51.4998 73.6665V72.5257C51.4998 71.896 50.9958 71.3848 50.3749 71.3848Z" fill="#162694"/>
<path d="M34.6327 63.4023C34.0119 63.4023 33.5078 63.9135 33.5078 64.5432C33.5078 65.1729 34.0119 65.6841 34.6327 65.6841H40.254C40.8749 65.6841 41.3789 65.1729 41.3789 64.5432C41.3789 63.9135 40.8749 63.4023 40.254 63.4023H34.6327Z" fill="#162694"/>
</svg>
